<?xml version="1.0" encoding="utf-8"?>
<!-- Generator: Adobe Illustrator 26.0.1, SVG Export Plug-In . SVG Version: 6.00 Build 0)  -->
<svg version="1.1" xmlns="http://www.w3.org/2000/svg" xmlns:xlink="http://www.w3.org/1999/xlink" x="0px" y="0px"
	 viewBox="0 0 255 235" style="enable-background:new 0 0 255 235;" xml:space="preserve">
<style type="text/css">
	.st0{display:none;}
	.st1{display:inline;}
	.st2{fill:#263370;}
	.st3{display:inline;fill:#F7931E;}
	.st4{display:inline;fill:#263370;}
	.st5{display:inline;fill:#263370;stroke:#000000;stroke-miterlimit:10;}
	.st6{display:inline;fill:none;stroke:#9DB2B1;stroke-width:0.25;stroke-miterlimit:10;}
	.st7{fill:none;stroke:#9DB2B1;stroke-width:0.25;stroke-miterlimit:10;}
	.st8{display:inline;fill:#267370;}
	.st9{display:inline;fill:#1A517A;}
	.st10{fill:#267370;}
	.st11{fill:#1A517A;}
	.st12{display:inline;fill:#026666;}
	.st13{display:inline;fill:none;stroke:#267370;stroke-width:3;stroke-miterlimit:10;}
	.st14{fill:none;stroke:#267370;stroke-width:6;stroke-miterlimit:10;}
	.st15{fill:#FFFFFF;stroke:#267370;stroke-width:6;stroke-miterlimit:10;}
	.st16{fill:#F7931E;}
	.st17{fill:#FFFFFF;}
</style>
<g id="Layer_2" class="st0">
	<g class="st1">
		<rect x="-293.5" y="-110.5" class="st2" width="847" height="596"/>
		<path d="M553-110v595h-846v-595H553 M554-111h-848v597h848V-111L554-111z"/>
	</g>
</g>
<g id="Layer_1" class="st0">
	<g class="st1">
		<path class="st2" d="M35.3,169.4c-0.3-0.2-0.4-0.2-0.6-0.3c-0.2-0.2-1-0.4-0.6-0.8s1.1-0.2,1.8-0.2c2.3,0.2,4.6,0.3,7,0.3
			c1.2,0,2.3-0.1,3.5-0.1c0.8,0,1.5-0.1,2.3-0.1c0.3,0,0.7,0,1,0c0.5-0.1,0.4-0.2,0.4-0.7c0-1.9,0.2-3.7,0.2-5.6
			c0-0.9,0.1-1.7,0.2-2.5c0.1-0.8,0.2-1.5,0.5-2.2c0.3-0.8,0.7-1.6,1.1-2.3c0.2-0.4,0.4-0.6,0.7-0.9c0.5-0.5,1-1,1.6-1.5
			c1-0.7,2-1.3,3.2-1.9c1.1-0.5,2.3-0.9,3.5-1.1c1.3-0.2,2.4-0.2,3.7,0.1c1.3,0.3,2.3,0.9,3.3,1.8s2.2,2.1,2.8,3.4
			c0.6,1.3,0.8,2.7,0.8,4.1s-0.3,2.8-0.7,4c-0.4,1.2-1.1,2.5-1.8,3.2c-1.8,2.1-4.1,3.7-6.4,4.6c-2.3,0.9-3.9,1.1-6.2,1.3
			s-3.4,0.1-6,0.1s-6.9-0.5-10-1.1c-0.2,0-0.7-0.2-1.1-0.3c-0.4-0.1-1.1-0.3-1.5-0.4c-0.5-0.1-1-0.4-1.5-0.5S35.6,169.6,35.3,169.4z
			 M55.1,156.1c-0.1,0.6-0.2,1.2-0.2,1.9c-0.1,0.7-0.1,1.5-0.2,2.3s-0.1,1.7-0.3,2.5c-0.1,0.4-0.2,1-0.4,1.4c-0.2,0.5-0.5,1-0.8,1.5
			c-0.3,0.5-0.6,0.9-0.8,1.4c-0.2,0.3-0.6,0.7-0.7,1.1c0.3,0.1,0.7,0,1.1,0c0.4,0,0.8,0.1,1.2,0.1c0.9,0,1.7,0,2.6,0.1
			c1.8,0.1,3.6,0.1,5.3-0.1c0.8-0.1,1.6-0.2,2.3-0.5c0.7-0.2,1.3-0.5,1.8-1c0.8-0.7,1.1-1.3,1.4-2.3c0.3-1,0.4-2.1,0.3-3.2
			c-0.1-1.1-0.5-2.2-1-3.3s-1.2-1.9-2.1-2.7c-0.6-0.6-1.4-1-2.1-1.3c-0.8-0.3-1.7-0.4-2.6-0.4c-0.8,0-1.7,0.1-2.4,0.3
			c-0.7,0.2-1.4,0.5-1.8,1C55.2,155.3,55.2,155.5,55.1,156.1z"/>
	</g>
	<path class="st3" d="M120.3,140.5l0-0.1c0-0.2,0.1-0.6,0.3-1.4c0.5-1.4,0.8-2.5,1.1-3.4c0.6-1.5,1-2.6,1.4-3.3c0.5-1,0.8-1.5,1-1.5
		c0.3,0,0.9,0.2,1.8,0.5c0.3,0.1,1.3,0.5,2.9,1.3c0.7,0.3,1.6,0.8,2.7,1.5c0.7,0.5,1.1,1,1,1.5c0,0.2-0.2,1.1-0.5,2.4
		c-0.2,0.7-0.6,1.8-1.2,3.1c-0.6,1.2-1.1,2.1-1.4,2.5c-0.4,0.6-0.7,0.9-0.9,0.8l-0.1,0c-0.9-0.5-2.1-1.2-3.8-2.1
		C122.3,141.4,120.9,140.7,120.3,140.5z"/>
	<path class="st4" d="M98.8,116.3c0,0,0-0.1,0-0.2C98.8,116.1,98.9,116.6,98.8,116.3z"/>
	<g class="st1">
		<path class="st2" d="M148,103.6c0-1.9,0-3.1,0-3.4c0-0.3-0.1-0.7-0.2-1.3c-0.1-0.5-0.1-0.9-0.1-1.2c-0.2-0.9-0.4-1.4-0.6-1.5
			c-0.1-0.1-0.2-0.1-0.3-0.1c-0.2,0-0.3,0.1-0.3,0.1c-0.3,0.4-0.7,1.2-1.3,2.4c-0.4,0.9-1,1.8-1.5,2.7c-0.6,1-1.4,2-2.2,3.1
			c-0.8,1-1.9,2.2-3.2,3.4c0-0.2,0-0.4-0.1-0.6c-0.1-0.7-0.4-1.6-0.8-2.5c-0.4-1-1-2-1.7-2.8c-0.7-0.9-1.5-1.6-2.3-2
			c-0.9-0.4-1.8-0.5-2.8-0.4c-1.6,0.3-2.9,0.8-4,1.6c-1.1,0.7-2,1.7-2.8,2.8c-0.7,1-1.2,2.3-1.4,3.6c-0.2,1.3-0.2,2.5,0,3.7l0.1,0.5
			c0.2,1.3,0.6,2.3,1.2,3.1c0.7,0.8,1.3,1.4,2,1.8c0.8,0.5,1.6,0.8,2.3,1c0.6,0.2,1.3,0.3,2.1,0.4c0.4,0.1,0.9,0.1,1.6,0.1
			c0.3-0.1,0.5-0.1,0.6,0c-0.5,0.6-1.1,1.2-1.7,1.7c-1.5,1.2-3.3,1.9-5,2.6c-1.9,0.7-3.8,1.2-5.8,1.5c-2.1,0.3-4.1,0.4-6.3,0.3
			c-0.2,0-0.4,0-0.6-0.1c-1-0.1-1.9-0.3-2.8-0.5c-0.6-0.1-1.6-0.1-1.9-0.8c-0.3-0.4,0.1-0.9,0.1-1.4c0-0.5,0-1,0-1.4
			c0-0.4-0.1-0.8-0.1-1.2c0-0.3-0.1-0.5-0.1-0.8c0-0.3-0.1-1-0.4-1s-0.2-0.1-0.5,0.4c-0.3,0.5-0.5,1.2-0.7,1.9
			c-0.2,0.7-0.3,1.7-0.7,2.5c-0.4,0.8-0.8,1.6-1.6,2.1c-0.9,0.5-2.1,0.8-3.2,0.7c-0.6-0.1-1.3-0.4-1.6-1c-0.4-0.6-0.6-1.2-0.8-2
			c-0.2-0.8-0.3-1.5-0.4-2.4c-0.1-0.5-0.1-1.6-0.4-2.2c-0.2-0.6-0.3-1.3-0.9-1.8c-0.5-0.5-0.8-1-1.7-0.9c-0.9,0.1-1.7,0.2-2.4,1.2
			c-0.7,1-1.5,2.1-2.1,3.5c-0.6,1.4-1.2,3.1-1.8,4.8c-0.6,1.7-1.3,3.7-2.1,5.5c-0.8,1.8-1.5,3.5-2.5,5.4c-0.7,1.2-1.8,3-3,4.1
			c-1.2,1.1-2.8,1.8-4.4,2.2c-0.5,0.1-1,0.2-1.6,0.1c-1.3-0.2-2.8-0.4-3.9-1.2c-1.7-1.1-3-3-3.9-4.7c-0.8-1.7-0.9-3-1.1-4.8
			c0-0.2,0-0.4,0-0.5c0.3-1.8,0.7-3.2,1.8-4.6c1.1-1.4,2.8-2.5,4.3-3.5c0.3-0.2,0.6-0.4,0.7-0.6c0.2-0.2,0.1-0.2,0.1-0.3
			c0.1-0.2,0.2-0.4,0-0.6c-0.1-0.1,0.1-0.1-0.2-0.1c-0.3,0-0.3-0.3-0.8,0c-0.4,0.2-0.8,0.4-1.4,0.8c-0.6,0.4-1.6,0.8-2.4,1.5
			c-0.8,0.7-1.8,1.6-2.5,2.7c-0.7,1.1-1.4,2.3-1.7,3.8c-0.3,1.4-0.5,3-0.5,4.7c0.1,1.6,0.2,3.4,0.6,5.1c0.4,1.7,1.2,3.4,2.2,4.8
			c1,1.4,2.4,2.6,3.8,3.4c1.5,0.8,2.8,0.9,4.4,1.1c0.5,0.1,0.9,0.1,1.4,0c2-0.3,3.5-0.7,5-2.2c1.5-1.4,2.6-3.1,3.7-5
			c1.1-1.9,2-4.2,2.9-6.3c0.9-2,1.8-4.2,2.5-6.1c0.6-1.6,1.3-3.4,2-4.6c0.7-1.3,1-1.6,2.1-1.9c0.6-0.2,0.6,0.4,0.8,0.8
			c0.2,0.4,0.2,1,0.3,1.5c0,0,0,0,0.1,0.3c0.2,0.8,0.1,1.5,0.3,2.6c0,0.3,0.3,1.7,0.7,2.2c0.3,0.6,0.8,1.4,1.4,1.9
			c0.7,0.5,1.5,1.1,2.4,1.1c0.6,0.1,1.4,0,1.9-0.1s1-0.4,1.4-0.6c0.4-0.2,0.7-0.4,1.1-0.6c0.4-0.2,0.6-0.4,1.1-0.5c0,0,0-0.1,0.3,0
			l0,0c0,0,23.5,1,32.3-10.7c0.3-0.5,0.7-1,1-1.4c0.1,0,0.2,0.1,0.4,0.5c0,0.1,0.1,0.3,0.3,0.6c0.1,0.3,0.2,0.5,0.3,0.7l0.9,1.7
			c0.4,0.7,0.9,1.2,1.3,1.7c0.2,0.2,0.3,0.3,0.5,0.2c0.1-0.1,0.2-0.2,0.1-0.4c0-0.1,0-0.2-0.1-0.3c-0.6-1.2-1-2.4-1.2-3.6
			c-0.2-0.6-0.4-1.3-0.5-1.9c-0.1-0.7-0.2-1.4-0.2-2.1l3.5-5.8C145.8,107.8,146.9,105.8,148,103.6z M132.4,110.4
			c-1.4,0.2-2.4,0.3-3.1,0.3c-1.1,0-1.9-0.3-2.6-0.9c0.1-1,0.6-1.9,1.4-2.5c0.8-0.6,1.6-1,2.6-1.2l0.4-0.1c1.1-0.1,2.1,0,3,0.5
			c1,0.5,1.6,1.4,1.9,2.6C134.9,109.7,133.7,110.1,132.4,110.4z"/>
	</g>
	<path class="st4" d="M28.4,85.9C28.4,85.9,28.4,85.9,28.4,85.9L28.4,85.9L28.4,85.9z"/>
	<path class="st4" d="M95.4,159.3C95.4,159.4,95.4,159.4,95.4,159.3L95.4,159.3z"/>
	<path class="st4" d="M75.8,163.2"/>
	<path class="st5" d="M92.2,12.8"/>
	<path class="st5" d="M93.2-0.5"/>
	<path class="st5" d="M89.8,4.2"/>
	<path class="st4" d="M31.6,131.7c-0.5,0-0.8-0.3-0.8-0.8c0-0.9,0.7-2.6,2.1-5c0.3-0.5,0.7-0.7,1.2-0.7c1,0,2.3,0.7,4.1,2.2
		c0.3,0.2,0.4,0.6,0.4,1.2c0,0.4-0.1,0.9-0.2,1.4c-0.5,1.6-0.9,2.7-1.2,3.3c-0.1,0.2-0.2,0.3-0.5,0.3c-0.4,0-1-0.2-1.7-0.5
		C32.7,132.1,31.6,131.7,31.6,131.7z"/>
	<path class="st4" d="M54.6,142c0.1-0.7,0.3-1.3,0.4-1.8c0-0.2,0.1-0.5,0.2-0.7c0.3-0.8,0.4-1.4,0.6-1.8c0.2-0.6,0.4-1,0.5-1
		c0.2,0,0.6,0.1,1.2,0.2c0.2,0.1,0.8,0.3,1.9,0.6c0.4,0.2,1,0.4,1.7,0.8c0.5,0.3,0.8,0.6,0.8,0.9c0,0.1,0,0.5-0.1,1.2
		c0,0.3-0.1,0.6-0.2,0.9c-0.1,0.4-0.3,0.9-0.5,1.5c-0.3,0.8-0.5,1.4-0.7,1.7c-0.2,0.4-0.4,0.6-0.5,0.6h-0.1c-0.5-0.2-1.3-0.6-2.4-1
		c-0.1,0-0.2-0.1-0.3-0.1c-1.3-0.5-2.1-0.8-2.5-0.9L54.6,142z"/>
	<path class="st4" d="M92.1,28.4c0.9,3.1,1.9,6.3,3,9.6c1.1,3.3,2.3,6.6,3.5,10c0.3,0.8,0.6,1.5,0.8,2.3l4.3,1.1
		c-1.4-4.1-2.9-8.2-4.2-12.1c-1.4-4-2.7-8-3.8-11.7c-1.1-3.8-2-7.4-2.8-10.9c-0.7-3.5-1.1-6.8-1.2-9.9c-0.1-2.4,0.1-4.6,0.5-6.7
		c-1.2,1.4-2,3-2.4,5S89,9,89.1,11.5c0.1,2.5,0.4,5.1,0.9,8C90.5,22.3,91.2,25.3,92.1,28.4z"/>
	<g class="st1">
		<path class="st2" d="M78.1,54.4l-3.5,0.4c-1.2,2.1-2.5,4.1-3.8,6c-8.4,12.7-13.4,28.4-10.9,43.7c0.6,4.4,2.5,8.5,3.6,12.8
			c0.2,0.6,0.3,1.2,0.3,1.9c-0.2-2.5-1-5-1.8-7.4c-0.7-2.4-1.2-4.9-1.6-7.4c-1.9-15,3.6-30.1,12.3-42.2
			C74.5,59.9,76.5,57.1,78.1,54.4z"/>
		<path class="st2" d="M91.4,4.5c-0.2-0.1-0.4-0.2-0.5-0.3l0.3-2.9c0,0-0.5,0.9-1.2,2.3c0,0,0,0,0,0C90,3.7,89,5.8,88.9,6
			c-0.6,1.5-1.2,3.1-1.6,4.7c-0.4,1.6-0.6,3.3-1,5c-0.4,2.1-0.8,4.2-1.2,6.3c-0.8,4.2-1.7,8.5-2.8,12.6c-1.1,4.2-2.3,8.3-3.9,12.3
			c-0.4,0.9-0.8,1.8-1.2,2.7l3.6-0.4c5.5-11.5,7.8-24.2,10.9-36.5c0-0.2,0.1-0.3,0.1-0.5C91.5,9.8,91.4,6,91.4,4.5z"/>
	</g>
	<path class="st4" d="M132.2,66.4c-0.5-0.9-1.4-1.4-2.4-1c-0.6,0.3-0.6,1.1-0.6,1.6c0.4,8.2,2.1,15.8-0.1,23.8
		c3.4-5.3,3.7-10.5,3.1-16.7c2.3,2.8,4.6,4.8,4.6,8.8c0,2.8,0.5,4.9-2.3,7.1c-3.7,3-10,4.2-15.2,5c-0.5,0.1-0.1,6.4,0.5,6.3
		c3.4-0.5,7-1.3,10-2.5c3.6-1.4,6-3.7,8-6.8c0.2-0.3,0.3-0.5,0.3-0.8C139.9,81.5,137.2,74.8,132.2,66.4z"/>
	<g class="st1">
		<path class="st2" d="M105.7,67.5c1.3,3.1,2.4,6,3.4,8.9c1,2.8,1.9,5.5,2.5,8c1.5,5.7,2.4,11.2,2.9,16.5c0.5,5.5,0.4,10.6-0.2,15.3
			c-0.3,2.4-0.7,4.7-1.2,6.8h4.8c0.3-2.3,0.6-4.9,0.7-7.7c0.2-3.6,0.1-7.3-0.2-11c-0.4-4.5-1.1-9-2.1-13.5c-1-4.5-2.2-8.9-3.6-13.4
			c-1.4-4.4-3-8.8-4.6-13.1c-1-2.6-2-5.1-3.1-7.7l-4.2-0.8c0.3,0.7,0.6,1.4,0.9,2.1C103.1,61.3,104.4,64.5,105.7,67.5z"/>
		<path class="st2" d="M109.5,131.9c-1.3,2.2-2.8,4-4.5,5.5c-2.5,2.2-5.4,3.4-8.8,3.7c-0.7,0.1-1.5,0.1-2.3,0
			c-0.8,0-1.6-0.1-2.4-0.3c1.8,1.4,3.6,2.5,5.6,3.3c2,0.8,4,1.1,6,0.9c1.9-0.2,3.6-0.8,5.4-1.9c1.7-1.1,3.3-2.9,4.6-5.2
			c1.1-1.8,2-4.1,2.8-6.8L109.5,131.9z"/>
	</g>
	<g class="st1">
		<path class="st2" d="M15,125.9c-0.7,0.7-1.3,1.4-2.1,2c-0.2,0.2-0.5,0.4-0.7,0.6c-0.2,0.2-0.5,0.4-0.6,0.6c-0.1,0.3,0,0.4,0.3,0.5
			c0.3,0,0.6-0.1,0.9-0.3c0.8-0.5,1.5-1.1,2.2-1.6V125.9z"/>
		<path class="st2" d="M61.8,118.1c-0.4-0.8-1-1.4-1.8-1.7c-0.3-0.1-0.7-0.2-1,0c-0.3,0.2-0.4,0.5-0.5,0.8c-0.8,2.2-1.4,4.4-1.9,6.6
			c0.3-0.3,0.6-0.6,0.9-0.9c2.3,0.6,2.9,4,1.5,5.9s-4,2.6-6.4,2.6c-3.5,0-7-1-9.9-2.9c-0.1,1.5-0.2,3-0.2,4.5c0,0.4,0,0.8,0.2,1.2
			c0.3,0.4,0.8,0.6,1.3,0.8c1.6,0.7,2.6,2.4,2.7,4.2c0.1,1.7-0.4,3.5-1.1,5.1c-1.4,3.2-3.8,6.4-7.2,7.4c-4.3,1.3-9.1-1.6-11.2-5.6
			s-1.9-8.8-0.9-13.2c1.5-6.6,4.9-12.7,7.1-19.1c4.7-13.1,4.8-27.7,1.3-41.2c0.1,0.3,0,0.7,0.1,1c0,0.3,0,0.7,0.1,1
			c0,0.7,0,1.4,0.1,2.1c0,1.4,0,2.7-0.1,4.1c-0.1,1.4-0.2,2.7-0.3,4.1c-0.2,1.4-0.3,2.7-0.6,4.1c-0.2,1.4-0.5,2.7-0.8,4
			c-0.3,1.3-0.7,2.7-1.1,4c-0.4,1.3-0.8,2.6-1.3,3.9c-0.5,1.3-1,2.6-1.5,3.8s-1.1,2.5-1.7,3.7c-0.6,1.2-1.3,2.4-2,3.6
			c-0.7,1.2-1.4,2.4-2.2,3.5c-0.8,1.1-1.5,2.3-2.4,3.4c-0.8,1.1-1.7,2.2-2.6,3.2c-0.5,0.6-1,1.1-1.5,1.7l0.5,2
			c6.6-5.6,11.9-12.8,15.3-20.8c-1.5,9.3-7.9,17.2-9.9,26.5c-1.3,5.8-0.6,12,1.7,17.5c1.9,4.3,5.4,8.5,10.1,9.1
			c4.7,0.5,9.1-2.8,11.3-7s2.6-9,3-13.7c3.8,1,7.9-0.9,10.2-4.1c2.3-3.1,3.1-7.2,3.1-11.1C62.6,120.6,62.4,119.2,61.8,118.1z"/>
	</g>
	<path class="st4" d="M43.4,167.4c-3.8-1.7-7.5-3.6-11-5.2c-1.2-0.6-1.1-0.5-1.6-1.1c1.6,2.3,4.3,4.6,7.4,6.7L43.4,167.4z"/>
	<g class="st1">
		<path class="st2" d="M58.4,100.5c-0.4,0.5-0.9,0.9-1.3,1.4c-2.2,2.5-3.9,5.4-6,7.9c-0.5,0.6-1.1,1.4-1.8,1.5
			c-2.6,0.4-5-0.6-5.8-3.2c-1.9-6.5-2.4-12.2,0.7-18.3c3.4-6.7,9.3-10.6,14.8-15.4c5.4-4.8,8.3-9.8,9.8-16.9
			c0.3-1.4-0.3-2.5-1.4-3.3c-1.7,7.9-3.8,13.5-10.1,19c-5.6,4.9-11.7,9.1-15,16.1c-2.9,6.2-3.1,12.9-2.5,19.7c0.2,1.9,1.1,3.5,2.2,5
			c1.5,2,3.5,3.7,6.2,3.2c3.3-0.7,4.9-3.4,6.8-6c1.3-1.7,2.4-3.6,3.9-5.1L58.4,100.5z"/>
		<g>
			<path class="st2" d="M112.5,100.3c-0.1-0.3-0.2-0.6-0.3-1c-0.1-0.4-0.3-1-0.4-1.4c-0.3-0.9-0.5-1.8-0.9-2.7
				c0-0.1-0.5,0.1-0.7,0.2c-0.2,0.1-0.7,0.2-1,0.3c-1.3,0.3-2.7,0.7-3.9,1.2c-1.2,0.4-2.3,0.9-3.5,1.1c-0.8,0.2-1.4,0.3-2.2,0.3
				c-2.3-0.1-3.9-1.1-5.4-3c-2.3-2.9-3.3-6.9-3.8-10.5c-1.5-10.9-2.8-21.3-3.4-32.2c-1.7,5.5-3.7,8.9-3.4,15.2
				c0.4,7.6,1.9,16.8,1.9,24.8c0,2.7,0.2,5.5-0.5,8.1c-0.8,2.6-2.4,4.3-4.6,5.8c-0.9,0.6-2,0.6-3,0.2c-1.3-0.6-2.1-1.7-2.7-3
				c-0.7-1.2-0.5-2.8-1.4-3.8c-2.2-2.6-4.5-3.9-8-3.5c-1.4,0.2-2.4,0.8-3.7,1.4c0,2-0.1,4,0,5.9c2-0.6,3.8-0.8,5.5,0.5
				c2.5,1.8,2.2,5.2,4.3,7.4s5,2.9,8,2c3.3-1,6.1-2.9,8.1-5.7s2.2-6.1,2.9-9.3c1.1,2.1,2.1,4.1,4.4,5.1c2.3,0.9,4.4,0.9,6.8,0.5
				c2-0.4,4.1-1.2,6.1-1.7c0.6-0.2,1.3-0.4,1.7-0.5c0.4-0.1,0.6-0.1,0.9-0.1c0.8-0.1,1.5-0.3,2.2-0.6
				C112.8,100.8,112.6,100.6,112.5,100.3z"/>
		</g>
	</g>
	<path class="st4" d="M125.2,63.2c0.5-0.7,0.4-1.7-0.4-2.2c-5.9-3.5-12.3-6.3-18.9-8.2C62,40.2,16.9,73,15.8,118.8
		c-0.6,17,5.4,34.1,16.4,47.1c-10.7-13.1-16.4-30.2-15.6-47.1c2.8-54.3,62-83.5,106.8-55.4C124,63.9,124.8,63.8,125.2,63.2
		L125.2,63.2z"/>
	<path class="st4" d="M149.6,95.6c-2.4-7.2-6-14-10.5-20.1c4.4,6.1,7.9,13,10.2,20.2c17.2,55.5-36.6,106-90.5,85.6
		c-0.7-0.3-1.5,0-1.9,0.7l0,0c-0.4,0.8,0,1.8,0.8,2.1c13.9,5.1,29.2,5.7,43.4,1.8C139.9,175.4,162.5,133.7,149.6,95.6z"/>
	<path class="st4" d="M98,112.8c0.2-0.6,0.4-1.4,0.6-2.4c0.2-1,0.5-1.9,0.8-2.8c0.2-0.6,0.4-1.1,0.6-1.5c0.2-0.4,0.4-0.7,0.7-0.9
		c0.3-0.2,0.6-0.3,1-0.3c0.4,0,1,0.1,1.7,0.2c0.8,0.2,1.5,0.3,2.1,0.4c0.7,0.1,1.4,0.2,2,0.2c0.7,0,1.4,0,2.1-0.2
		c0.7-0.1,1.4-0.3,2.2-0.6c-0.1,0.6-0.2,1.2-0.3,1.8c-0.1,0.6-0.2,1.2-0.3,1.8c-0.7,1.4-1.3,2.5-2,3.3c-0.7,0.7-1.5,1.3-2.4,1.6
		c-0.9,0.3-1.9,0.5-3,0.5c-1.1,0-2.4,0.1-3.8,0.1c0.8-0.2,1.4-0.3,2-0.5c0.5-0.2,1-0.3,1.4-0.5c0.4-0.2,0.8-0.3,1.1-0.5
		c0.3-0.2,0.7-0.4,1-0.7c0.4-0.3,0.7-0.6,1.2-0.9c0.4-0.4,0.9-0.8,1.5-1.3c-1.4,0-2.5-0.1-3.5-0.2c-0.9-0.1-1.8,0-2.5,0.1
		c-0.8,0.1-1.5,0.5-2.1,0.9C99.5,111,98.8,111.8,98,112.8z"/>
	<path class="st4" d="M109.5,151c0.1-0.5,0.3-1.1,0.4-1.8c0.2-0.7,0.4-1.5,0.6-2.1c0.2-0.5,0.3-0.9,0.4-1.2c0.1-0.3,0.3-0.5,0.5-0.7
		c0.2-0.2,0.4-0.2,0.7-0.3c0.3,0,0.7,0,1.2,0.1c0.5,0.1,1.1,0.2,1.6,0.3c0.5,0.1,1,0.1,1.5,0.1c0.5,0,1,0,1.5-0.1
		c0.5-0.1,1-0.2,1.6-0.5c-0.1,0.5-0.1,0.9-0.2,1.4c-0.1,0.5-0.1,0.9-0.2,1.4c-0.5,1.1-1,1.9-1.5,2.5c-0.5,0.6-1.1,1-1.7,1.2
		c-0.6,0.2-1.3,0.4-2.1,0.4c-0.8,0-1.7,0-2.8,0.1c0.6-0.1,1-0.2,1.4-0.4c0.4-0.1,0.7-0.2,1-0.4c0.3-0.1,0.6-0.3,0.8-0.4
		c0.2-0.2,0.5-0.3,0.7-0.5c0.3-0.2,0.5-0.4,0.8-0.7c0.3-0.3,0.7-0.6,1.1-1c-1,0-1.8-0.1-2.5-0.1c-0.7-0.1-1.3,0-1.8,0.1
		c-0.5,0.1-1.1,0.3-1.6,0.7C110.6,149.6,110.1,150.2,109.5,151z"/>
	<path class="st4" d="M40.8,147.6c0.2-0.6,0.3-1.2,0.3-1.7c0-0.5,0-1.1-0.1-1.6c-0.1-0.5-0.2-1.1-0.4-1.6c-0.2-0.5-0.4-1.1-0.5-1.6
		c-0.1-0.4-0.2-0.7-0.1-1.1c0-0.3,0.1-0.6,0.2-0.9c0.1-0.3,0.3-0.5,0.5-0.6c0.2-0.1,0.5-0.2,0.7-0.2c0.3,0,0.6,0.2,0.9,0.4
		c0.2,0.2,0.4,0.5,0.5,0.8c0.1,0.3,0.2,0.6,0.2,0.9c0,0.3-0.1,0.6-0.2,0.8c-0.1,0.2-0.3,0.3-0.6,0.3c-0.3,0-0.6-0.1-1.1-0.3
		c0.4,1,0.6,1.9,0.8,2.7c0.2,0.8,0.2,1.7,0.1,2.5c-0.1,0.8-0.3,1.6-0.7,2.4c-0.4,0.8-1,1.6-1.8,2.4c0-0.4,0.1-0.8,0.1-1.3
		c0-0.5,0.1-1,0.1-1.5c0-0.5,0-1-0.1-1.5c-0.1-0.5-0.1-1-0.3-1.4c-0.1-0.5-0.3-0.9-0.6-1.3c-0.3-0.4-0.6-0.7-1-1
		c0.3,0.6,0.4,1,0.5,1.4c0,0.3-0.2,0.6-0.6,0.7c-0.4,0.1-0.7,0.2-0.9,0.1c-0.3,0-0.5-0.1-0.7-0.2c-0.2-0.1-0.3-0.3-0.5-0.5
		c-0.1-0.2-0.2-0.4-0.3-0.7c-0.1-0.5-0.2-1,0-1.4c0.1-0.4,0.3-0.7,0.6-0.9c0.3-0.2,0.6-0.2,1.1-0.1c0.4,0.1,0.9,0.4,1.3,0.8
		c0.5,0.5,0.9,1.1,1.4,2C40.1,145.1,40.5,146.2,40.8,147.6z"/>
	<path class="st4" d="M139.4,131.5c0.2-0.4,0.2-0.9,0.3-1.3c0-0.4,0-0.8-0.1-1.2c-0.1-0.4-0.2-0.8-0.3-1.2c-0.1-0.4-0.3-0.8-0.4-1.2
		c-0.1-0.3-0.1-0.5-0.1-0.8c0-0.3,0.1-0.5,0.2-0.7c0.1-0.2,0.2-0.3,0.4-0.4c0.2-0.1,0.3-0.2,0.5-0.1c0.3,0,0.5,0.1,0.6,0.3
		c0.2,0.2,0.3,0.4,0.4,0.6c0.1,0.2,0.1,0.5,0.1,0.7c0,0.2-0.1,0.4-0.2,0.6c-0.1,0.1-0.3,0.2-0.5,0.3c-0.2,0-0.5-0.1-0.8-0.3
		c0.3,0.7,0.5,1.4,0.6,2c0.1,0.6,0.2,1.2,0.1,1.8c-0.1,0.6-0.3,1.2-0.6,1.8c-0.3,0.6-0.8,1.2-1.4,1.8c0-0.3,0-0.6,0.1-1
		c0-0.4,0-0.7,0-1.1c0-0.4,0-0.7-0.1-1.1c0-0.4-0.1-0.7-0.2-1.1c-0.1-0.3-0.3-0.7-0.4-1c-0.2-0.3-0.4-0.5-0.7-0.8
		c0.2,0.4,0.3,0.8,0.3,1c0,0.3-0.1,0.4-0.4,0.5c-0.3,0.1-0.5,0.1-0.7,0.1c-0.2,0-0.4-0.1-0.5-0.2c-0.1-0.1-0.3-0.2-0.3-0.4
		c-0.1-0.2-0.2-0.3-0.2-0.5c-0.1-0.4-0.1-0.8,0-1.1c0.1-0.3,0.2-0.5,0.5-0.7c0.2-0.1,0.5-0.2,0.8-0.1c0.3,0.1,0.6,0.3,1,0.6
		c0.3,0.3,0.7,0.8,1,1.5C138.8,129.6,139.1,130.4,139.4,131.5z"/>
	<path class="st4" d="M81.1,123.5c0.2-0.7,0.4-1.3,0.4-1.9c0-0.6,0-1.2-0.2-1.8c-0.1-0.6-0.3-1.2-0.5-1.8c-0.2-0.6-0.4-1.2-0.6-1.8
		c-0.1-0.4-0.2-0.8-0.2-1.2c0-0.4,0.1-0.7,0.3-1c0.2-0.3,0.4-0.5,0.6-0.7c0.2-0.2,0.5-0.2,0.8-0.2c0.4,0,0.7,0.2,1,0.4
		c0.3,0.3,0.5,0.5,0.6,0.9c0.1,0.3,0.2,0.7,0.2,1c0,0.4-0.1,0.6-0.2,0.9c-0.2,0.2-0.4,0.3-0.7,0.4c-0.3,0-0.7-0.1-1.2-0.4
		c0.4,1.1,0.7,2.1,0.9,3c0.2,1,0.3,1.9,0.2,2.8c-0.1,0.9-0.4,1.8-0.8,2.7c-0.5,0.9-1.1,1.8-2.1,2.7c0-0.5,0.1-1,0.1-1.5
		c0-0.5,0.1-1.1,0.1-1.6c0-0.6,0-1.1-0.1-1.7c-0.1-0.6-0.2-1.1-0.3-1.6c-0.2-0.5-0.4-1-0.7-1.4c-0.3-0.4-0.7-0.8-1.1-1.1
		c0.3,0.6,0.5,1.2,0.5,1.5c0,0.4-0.2,0.7-0.6,0.8c-0.4,0.1-0.7,0.2-1,0.2c-0.3,0-0.5-0.1-0.8-0.3c-0.2-0.1-0.4-0.3-0.5-0.6
		c-0.1-0.2-0.2-0.5-0.3-0.8c-0.2-0.6-0.2-1.1,0-1.6c0.1-0.5,0.4-0.8,0.7-1c0.3-0.2,0.7-0.3,1.2-0.2c0.5,0.1,1,0.4,1.5,0.9
		c0.5,0.5,1,1.3,1.6,2.3C80.2,120.7,80.7,121.9,81.1,123.5z"/>
	<path class="st4" d="M75.5,77.8c-0.1,0.4-0.3,0.5-0.4,0.5c-0.1,0-0.2-0.3-0.1-0.7c0.1-0.4,0.1-0.9,0.1-1.6c0-2.1-1.2-4.1-3.5-6.1
		c-0.1-0.1-0.1-0.3,0-0.5l0.7-1.2c0.1-0.1,0.1-0.1,0.3,0c2.3,1.7,3.4,4,3.4,6.9C76,76.1,75.8,77,75.5,77.8"/>
	<path class="st4" d="M45.2,122.5c-0.2,0.2-0.4,0.4-0.6,0.4c-0.2,0.1-0.4,0.1-0.5,0c-0.1-0.1-0.1-0.3,0-0.6c0.1-0.3,0.3-0.8,0.7-1.3
		c0.3-0.7,0.8-1.2,1.5-1.7c0.7-0.5,1.3-0.8,1.8-1c0.6,0,1.3,0.1,1.7,0.5c0.5,0.4,0.7,1.2,0.9,2.4c0.1,0.5-0.1,1.1-0.4,1.6
		c-0.3,0.6-0.6,1.1-1,1.7c-0.4,0.6-0.9,1-1.3,1.4s-0.9,0.8-1.2,1c-0.5,0.5-0.8,0.8-1.2,0.9c-0.3,0.1-0.6,0.1-0.6,0
		c-0.2-0.1-0.2-0.3-0.1-0.6c0.1-0.2,0.4-0.6,0.8-1c0.8-0.7,1.5-1.6,2.1-2.5c0.2-0.3,0.2-0.7,0.1-1.1c0-0.4-0.1-0.7-0.3-0.9
		c-0.2-0.2-0.5-0.3-0.8-0.3C46.3,121.7,45.8,121.9,45.2,122.5"/>
	<path class="st4" d="M31.8,142.5c0.1-0.2,0.2-0.2,0.2,0.1c-0.1,0.9-0.3,1.6-0.7,2.4c-0.4,0.7-0.8,1.1-1.3,1.1
		c-0.6,0.1-0.9-0.2-1.2-0.7c-0.3-0.6-0.4-1.3-0.3-2.2c0-0.6,0.1-1.3,0.3-2.1c0.2-0.7,0.4-1.5,0.7-2.2c0.2-0.7,0.6-1.4,0.8-2
		c0.2-0.6,0.5-1,0.7-1.2c0.2-0.3,0.4-0.6,0.5-0.7c0.1,0,0,0.2-0.2,0.7c-0.3,0.7-0.7,1.6-1,2.5c-0.3,1-0.6,2.1-0.8,3.3
		c0,0.7,0,1.4,0.2,1.9c0.2,0.6,0.4,0.8,0.8,0.7c0.2-0.1,0.6-0.2,0.8-0.6C31.5,143,31.7,142.8,31.8,142.5"/>
	<path class="st4" d="M122.7,76.4c0-0.4,0.1-0.3,0.3,0c0.4,1.4,0.4,2.6,0.3,3.9c-0.2,1.3-0.6,2-1.3,2.3c-0.8,0.4-1.4,0.3-2.1-0.4
		c-0.8-0.7-1.3-1.7-1.7-3c-0.3-0.8-0.6-2-0.7-3.3c-0.2-1.2-0.2-2.4-0.3-3.6c-0.1-1.2,0.1-2.4,0.1-3.3c0-1,0.2-1.7,0.3-2
		c0.2-0.6,0.3-1.1,0.3-1.2c0.1,0,0.1,0.2,0,1.1c-0.1,1.1-0.1,2.6,0,4.3c0.1,1.6,0.3,3.3,0.6,5.2c0.4,1.1,0.8,2,1.4,2.6
		c0.6,0.7,1.1,1,1.6,0.6c0.3-0.3,0.7-0.7,0.9-1.3C122.5,77.4,122.6,76.9,122.7,76.4"/>
	<path class="st4" d="M69.5,89.4c-1.2-0.1-1.8-0.6-2.2-1.2c-0.2-0.6-0.4-1.4-0.3-2.2c0.2-0.7,0.4-1.4,0.7-2.1
		c0.3-0.7,0.5-1.1,0.6-1.4c0.4-0.6,0.7-1,0.9-1.1c0.3,0,0.2,0.1,0,0.5c0,0.1-0.2,0.4-0.4,0.8c-0.2,0.4-0.3,0.9-0.3,1.3
		c0,0.5,0.1,0.9,0.4,1.3c0.2,0.3,0.9,0.5,1.8,0.4c0.5,0,0.8-0.1,1.1-0.4c0.3-0.1,0.6-0.5,0.8-0.7c0.2-0.4,0.5-0.8,0.5-1.2
		c0.2-0.4,0.4-0.9,0.7-1.3c0.2-0.5,0.4-0.9,0.6-1.1c0.1-0.2,0.2-0.3,0.2-0.3c0.1-0.1,0.3,0,0.2,0.1s0,0.3,0,0.3
		c-0.1,0.3-0.3,0.9-0.4,1.4c-0.3,0.6-0.1,1.2,0.3,1.6c0.1,0.1,0.4,0.2,1.1,0.4c0.6,0,1.2-0.1,1.5-0.4c0.5-0.4,1-0.8,1.2-1.4
		c0.3-0.6,0.5-1.4,0.7-2.1c0.2-0.5,0.3-0.5,0.5,0c0.1,0.6,0.1,1.4-0.1,2.3c-0.3,1-0.6,1.8-1.1,2.8c-1,1.4-1.9,2.3-2.9,2.4
		c-0.9,0.2-1.8,0.1-2.2-0.3c-0.2-0.1-0.5-0.1-0.8,0c-0.2,0.3-0.6,0.5-0.9,0.7c-0.4,0.3-0.7,0.5-1.1,0.9C70.4,89.3,70,89.5,69.5,89.4
		"/>
	<path class="st4" d="M89.7,144.5c-0.9-0.5-1.4-1-1.4-1.5c0-0.6,0.3-1.2,0.9-1.7c0.6-0.5,1.1-0.7,1.5-0.6c0.3,0.1,0.5,0.5,0.5,1
		c0,0.5-0.1,1.1-0.3,1.7c0.5,0.3,0.8,0.5,0.9,0.7c0,0.2-0.2,0.7-0.6,1.2c-0.1-0.2-0.4-0.4-0.8-0.7c-0.5,0.7-1.2,1.4-2,1.9
		c-0.9,0.7-1.7,1.2-2.4,1.5c-0.2,0.1-1,0.4-2.6,1c-0.2,0.1-0.4,0.1-0.5,0.1c0,0,0,0,0,0c0,0,0.1-0.2,0.4-0.3
		c1.2-0.7,2.3-1.4,3.5-2.1C88,146.1,89,145.3,89.7,144.5 M90.3,143.3c0.1-0.3,0.1-0.6,0-0.9c0-0.3-0.2-0.5-0.4-0.5
		c-0.1,0-0.3,0-0.5,0.1c-0.2,0.1-0.3,0.2-0.3,0.3C89.2,142.6,89.6,142.9,90.3,143.3"/>
	<path class="st4" d="M87.5,177.1c1.5,0,3.1-0.3,4.8-0.8c0.5-0.1,0.7-0.2,0.7-0.1c0,0-0.2,0.3-0.6,0.6c-1.5,1.3-3.4,2-5.8,2
		c-0.7,0-1.3-0.2-1.8-0.6c-0.4-0.4-0.7-0.9-0.7-1.4c0-1.6,0.7-3.2,2-4.9c-1.2-0.4-1.8-1-1.8-1.8c0-0.8,0.5-1.7,1.4-2.7
		c1-1,1.7-1.6,2.3-1.6c0.1,0,0.3,0.1,0.4,0.3c0.2,0.3,0.3,0.5,0.3,0.8c0,0.1-0.2,0.4-0.5,0.9c-0.3,0.4-0.5,0.6-0.5,0.5
		c-0.1-0.5-0.4-0.7-0.8-0.7c-0.2,0-0.4,0.2-0.8,0.5c-0.3,0.4-0.4,0.7-0.4,0.9c0.4,0.6,1,1,1.9,1c0.3,0,0.8-0.3,1.4-0.8
		c0.4-0.3,0.8-0.7,1.1-1.1c0.1-0.1,0.2,0,0.2,0.3c0,0.7-0.3,1.4-0.8,2.1c-2,1.3-3.4,2.9-4.4,4.6c-0.2,0.3-0.3,0.6-0.3,0.8
		C85,176.7,85.8,177.1,87.5,177.1"/>
	<path class="st4" d="M107.3,179.9c-0.9,0.4-1.4,0.6-1.6,0.6c0,0,0,0,0,0c0,0,0.3-0.3,1-0.8c0.6-0.5,1.6-1.3,2.8-2.5
		c0.6-0.8,1.5-2,2.6-3.6c0.8-1.1,1.6-2.1,2.5-3c1.1-1,2.3-1.6,3.6-1.8c0.3,0,0.7,0,1.2,0.1c0.5,0.1,0.9,0.1,1.3,0.1
		c0.6-0.1,1.1-0.4,1.4-0.9c0.3-0.5,0.5-1,0.7-1.6c0.2-0.4,0.4-0.6,0.5-0.6c0.1,0,0.1,0.1,0.2,0.2c0,0.2,0,0.6-0.2,1.1
		c-0.1,0.3,0.6,0.3,1.9,0.2c0.1,0,0.2-0.1,0.2-0.1c0,0-0.1-0.4-0.3-0.9c-0.1-0.2-0.1-0.4,0.1-0.8c0.3-0.6,0.4-0.9,0.5-0.8
		c0.3,0.3,0.6,0.7,0.6,1.3c0.1,0.5,0,1.2-0.2,1.9c-0.2,0.7-0.4,1.2-0.6,1.4c-0.5,0.5-1.4,0.5-2.8,0c-0.9,1.2-1.8,1.8-2.8,2
		c-0.3,0-0.6,0-1.1-0.1c-0.5-0.1-0.8-0.1-1,0c-1.7,0.2-3.3,1.2-4.9,3c-1.1,1.4-2.2,2.8-3.4,4.2C108.7,179.1,108,179.6,107.3,179.9"
		/>
	<path class="st4" d="M100.2,91.4c-0.1-1.1-0.4-2-0.8-2.7c-0.4-0.7-1-1.3-1.6-1.9c-0.2,0.2-0.5,0.3-0.9,0.3c-0.7,0-1.1-0.2-1.4-0.6
		c-0.3-0.4-0.5-0.8-0.5-1.4c0-0.4,0.1-0.8,0.2-1.1c0.1-0.4,0.3-0.7,0.4-0.9c0.6,0.3,1.1,0.6,1.7,1c0.6,0.4,1.1,0.8,1.6,1.3
		c0.5,0.5,0.9,1.1,1.2,1.7c0.3,0.6,0.5,1.4,0.6,2.2c0.2-0.8,0.4-1.6,0.4-2.3c0-0.7-0.1-1.5-0.3-2.1c-0.2-0.7-0.5-1.3-0.9-2
		c-0.4-0.6-0.8-1.2-1.2-1.8c-0.4-0.6-0.9-1.1-1.3-1.6c-0.5-0.6-1-1.1-1.5-1.6c-0.5-0.5-1-1.1-1.4-1.7c-0.4-0.6-0.8-1.2-1.1-1.9
		c-0.3-0.7-0.4-1.5-0.4-2.3c0-2.2,0.5-4,1.6-5.2c1-1.2,2.4-1.9,4.2-1.9c0.7,0,1.3,0.1,1.9,0.3c0.6,0.2,1.2,0.4,1.7,0.8
		c0.5,0.3,0.9,0.8,1.2,1.3c0.3,0.5,0.5,1.1,0.6,1.7c0,0,0,0,0,0c0,0,0,0,0,0c0,0-0.1-0.1-0.3-0.2c-0.2-0.1-0.4-0.3-0.7-0.5
		c-0.3-0.2-0.5-0.3-0.7-0.5c-0.2-0.2-0.3-0.2-0.3-0.3c0,0,0-0.1,0.1,0c0.1,0,0.1,0,0.1,0c0,0-0.1,0-0.4-0.1c-0.2,0-0.4-0.1-0.4-0.2
		c0,0,0-0.1,0.1-0.1c-0.5,0-1-0.1-1.5-0.2c-0.5-0.1-1.1-0.2-1.7-0.2c-0.6,0-1.2,0.1-1.7,0.2c-0.6,0.2-1,0.4-1.5,0.7
		c-0.4,0.3-0.8,0.7-1,1.3c-0.3,0.5-0.4,1.1-0.4,1.8c0,0.8,0.1,1.5,0.4,2.2c0.3,0.7,0.7,1.3,1.1,1.9c0.4,0.6,0.9,1.1,1.4,1.7
		c0.5,0.5,1,1,1.4,1.6c0.5,0.6,1,1.2,1.4,1.8c0.5,0.6,0.9,1.3,1.2,2c0.3,0.7,0.6,1.4,0.8,2.2c0.2,0.8,0.3,1.6,0.3,2.5
		c0,0.4,0,0.8-0.1,1.3c0,0.5-0.1,1-0.2,1.5c-0.1,0.5-0.3,0.9-0.5,1.3C100.8,91,100.5,91.2,100.2,91.4z"/>
	<path class="st4" d="M144.6,143.6c-0.2-0.7-0.5-1.4-0.7-1.9s-0.4-0.9-0.8-1.1c-0.9-0.4-1.4-0.1-2.3,0c-0.4,0-0.8,0.3-1.1,0.4
		c-0.4,0.1-0.8,0.3-1.2,0.4c-1,0.3-2,0.7-3,0.8c-1,0.2-2-0.1-3-0.2c-0.1,0-0.3-0.2-0.3,0.2s-0.2,0.4,0,1c0.2,0.6,0.3,1.4,0.5,2.2
		c0.2,0.8,0.6,2,0.8,2.9c0,0.2,0,0.6,0.1,0.7c-1.3,4.9-3.6,7.1-8.5,8.4c0-0.2,0-0.2,0.1-0.4c0-0.2,0.1-0.6,0.1-0.9s0-1,0-1.3
		c0-0.3-0.1-0.5-0.3-0.6c-0.1-0.2-0.1-0.1-0.2-0.1s-0.2,0-0.3,0.2c-0.2,0.5-0.4,1-0.6,1.6c-0.3,0.5-0.5,1.1-0.9,1.6
		c-0.4,0.5-0.8,0.9-1.5,1.1c-0.7,0.2-1.4,0-2.1,0c0.1-0.4,0.2-0.6,0.2-1c0.1-0.4,0.1-0.7,0.1-1.2c0-0.5,0-1.2,0-1.8
		c0-0.2-0.2-0.5-0.4-0.6c-0.2-0.1-0.3,0-0.4,0.2c-0.3,0.7-0.4,1.4-0.7,2c-0.3,0.7-0.6,1.4-1.2,1.9c-0.6,0.6-1.1,1-1.9,1.3
		c-0.8,0.3-1.9,0.1-2.7,0c0-0.3,0.1-0.5,0.1-0.7s0.1-0.5,0.1-0.8c0-0.3,0-0.7,0-1.1c0-0.3,0-0.7,0-1c0-0.3,0-0.5-0.3-0.6
		c-0.3-0.1-0.3,0.1-0.5,0.3c-0.1,0.3-0.2,0.6-0.3,0.9c-0.2,0.3-0.1,0.7-0.4,1c-3.8,3.9-6.9,4.6-11.9,2.5c-0.1,0-0.4-0.6-0.4-0.7
		c0.3-0.6,0.7-1.2,1.1-1.7s0.7-1.1,0.9-1.6c0.2-0.5,0.3-0.9,0.4-1.3c0.1-0.4,0.1-0.8,0.1-1.1c-0.1-0.7-0.2-1.2-0.7-1.7s-1-0.7-1.8-1
		c-0.7-0.2-1.7-0.5-2.5-0.5c-1.2-0.1-2.5,0-3.7,0.3c-1.1,0.3-2.1,1.2-2.9,1.8c-0.8,0.6-1.3,1.4-1.8,2.1c-0.5,0.7-0.4,1.1-0.7,1.7
		c-0.1,0.2,0.1,0.2,0.2,0.3c0.1,0.1,0,0,0.1,0.1s0.1,0,0.3,0.1c0.2,0,0.6,0.1,0.9,0.1c0.2,0,0.4,0,0.7,0s0.4,0,0.6,0
		s0.5,0.1,0.7,0.1c0.2,0,0.3,0.1,0.4,0.1c0.4,0.2,0.8,0.5,1.1,0.8s0.4,0.6,0.4,0.9c0.1,0.3-0.2,0.4-0.2,0.5
		c-0.1,0.1-0.1,0.1-0.1,0.1c-0.1,0.1,0,0.1-0.1,0.1c-3,0.9-5.6,0.8-8.6,0.2c0.1-0.2,0-0.7-0.1-0.8c-0.2-0.7-0.2-1.2-0.6-1.8
		c-0.9-1.4-2.1-2.7-3.6-3.4c-0.8-0.4-1.5-0.3-2.3,0c-0.8,0.3-1.2,1-1.8,1.6c-0.5,0.6-0.8,1.6-1.2,2.1c-0.3,0.6-0.5,1.6-0.5,2
		c0,1.4,0,2.5,0.6,3.6s1.5,0.9,2.5,1.4c0.2,0.1,0.4,0,0.6,0c0.7,0,1.4-0.1,2.1-0.2c0.3,0,0.9-0.1,1.2-0.1s0.5-0.1,0.7,0.1
		c0.2,0.2,0.1,0.3,0,0.5c-0.1,0.2-0.2,0.5-0.4,0.7c-4.5,4-8.1,7.5-14.4,8.7c-2.8,0.5-5.7,0.1-8.7-0.7l-8.5,0.7
		c7.2,3.1,14.6,5,18.7,4.6c8.5-0.9,13.4-10.9,16-14.1c3.3-0.3,6.8-0.7,10-1.6c0.1,0,0.1,0,0.1-0.1s0.4-0.3,0.5-0.2
		c0.5,0.4,0.7,1,1.1,1.4c0.6,0.7,1.2,1.4,2.1,1.7c2.4,0.8,4.7,1.1,7.2,1c0.9,0,1.8-0.4,2.7-0.7s1.6-0.8,2.4-1.3
		c0.5,0.1,0.6,0.3,1.2,0.4c0.5,0.1,1,0.3,1.7,0.3c0.7,0,1.6-0.1,2.5-0.2c0.8-0.2,1.9-0.8,2.7-1c0.7-0.2,1.3,0.2,2.1,0.1
		c0.7-0.1,1.3,0,2.1-0.2c0.8-0.2,1.3-0.6,2.2-0.9c0.9-0.3,1.9,0,3-0.3c1.1-0.3,2.3-0.6,3.4-1.3c1.1-0.6,2.4-1.3,3.2-2.4
		c1.3-1.9,2-4.1,2.6-6.4c0.2-0.6,0.2-1.5,0.4-2.1c0.2-0.6,0.4-0.9,0.8-1.3c0.1-0.1,0.3-0.1,0.5-0.2s0.5-0.1,0.8-0.2
		c0.3-0.1,0.6-0.2,0.9-0.2c0.3-0.1,0.7-0.2,0.9-0.3c0.7-0.2,1.4-0.5,2-0.7c0.6-0.3,1-0.4,1.4-0.8c0.4-0.4,0.5-0.9,0.5-1.4
		C144.9,144.8,144.7,144,144.6,143.6z"/>
	<path class="st4" d="M51.7,92c0.1-0.5,0.1-1,0-1.4c-0.2-0.6-0.4-0.8-0.7-0.8c-0.2,0-0.5,0.2-0.8,0.5c-0.4,0.3-0.5,0.6-0.5,0.8
		C49.6,91.5,50.3,91.8,51.7,92 M54.7,92c-0.4-0.8-1.1-1.4-2.1-1.9c0,0.9-0.1,1.6-0.2,2c0.2,0,0.9,0.2,2.2,0.3c0.1,0,0.2,0,0.2,0
		C54.8,92.4,54.8,92.2,54.7,92 M55.7,91.1c0,0.1,0.1,0.2,0.1,0.4c0,0.5-0.2,1.1-0.5,1.7c-0.3,0.6-0.6,1-0.9,1c0.2,0-0.6-0.2-2.5-0.5
		c-0.7,1.3-1.4,2.2-2.2,2.8c-0.6,0.6-1.6,1.1-2.9,1.8c-0.3,0.2-0.5,0.3-0.5,0.5c0,0.2,0.1,0.3,0.3,0.3c0.8,0.2,2,0.3,3.6,0.1
		c0.7-0.1,2.3-0.4,4.9-1c0.3-0.1,0.5-0.1,0.5-0.1c0,0.1-0.5,0.4-1.5,1.1c-0.4,0.3-1.2,0.6-2.3,1c-1.5,0.5-2.9,0.8-4.1,0.8
		c-1.4,0-2.2-0.5-2.2-1.4s0.4-1.8,1.2-2.5c0.7-0.5,1.4-1,2.1-1.4c1-0.7,1.7-1.4,2.3-2.1c-1.6-0.3-2.3-0.9-2.3-1.8
		c0-0.7,0.2-1.4,0.6-2.3c-0.3-1-0.2-1.6,0.2-2c0.3-0.3,0.7-0.5,1.1-0.5c0.4,0,0.9,0.1,1.4,0.4C53.9,88.4,55.1,89.6,55.7,91.1"/>
	<path class="st4" d="M145.9,133.7c-0.3,0.5-0.5,0.8-0.7,0.9c-2.5,0.6-5.5,1.4-9.1,2.4c-1.1,0.4-1.6,0.7-1.6,0.9
		c0,0.2,0.7,0.5,2.3,0.8c0.2,0.1,0.2,0.3,0.2,0.6c0,0.3,0,0.5-0.1,0.6c0,0.1-0.2,0.1-0.5,0c-1.9-0.3-2.8-0.7-2.8-1.4
		c0-0.4,0.2-0.9,0.8-1.5c0.5-0.6,1.1-1,1.7-1.2c0.5-0.2,2.2-0.7,5-1.4c1.5-0.4,3-0.7,4.5-1.1c0.3-0.1,0.5-0.1,0.5-0.1
		C146,133.4,146,133.5,145.9,133.7"/>
	<path class="st4" d="M37.3,110.5c0.2-0.4,0.5-0.6,0.8-0.6c0.2,0,0.2,0.1,0.2,0.2c0,0,0,0.1,0,0.2c-0.3,0.7-0.6,1.4-0.8,2.2
		c1.6,1.2,2.4,2.4,2.3,3.6c-0.1,1.3-0.3,2.1-0.5,2.5c-0.7,1-1.6,1.5-2.7,1.5c-1,0-1.5-0.7-1.5-1.9c0-0.3,0-0.6,0.1-0.9
		C35.5,114.9,36.2,112.6,37.3,110.5 M39,116.8c0-0.5-0.8-1.2-2.4-2c-0.5,1-0.8,1.8-0.8,2.6c0,0.5,0.2,0.7,0.7,0.7
		c0.4,0,0.9-0.2,1.4-0.4C38.4,117.3,38.8,117,39,116.8"/>
	<path class="st4" d="M99.9,179.4c-0.9,1-2.2,1.8-4.1,2.4c-1.6,0.5-3.1,0.9-4.4,1c-0.3,0-1.7,0.1-4.3,0.2c-0.4,0-0.7,0-0.8,0
		c-0.1,0-0.1-0.1,0-0.1c0-0.1,0.3-0.2,0.8-0.3c2.3-0.5,5.6-1.3,9.8-2.5c1.1-0.4,2-0.8,2.6-1.2c0.8-0.5,1.2-0.7,1.3-0.7c0,0,0,0,0,0
		C100.8,178.4,100.5,178.8,99.9,179.4 M107.3,172.7c-0.1,0.2-0.2,0.4-0.4,0.7c-0.3,0.4-0.5,0.6-0.7,0.5c-0.1,0-0.2-0.3-0.3-0.7
		c-0.1-0.4-0.4-0.6-0.6-0.7c-0.6-0.2-1.6,1-3,3.6c-0.6,1.1-1.1,1.9-1.5,2.3c-0.3,0.3-0.5,0.4-0.7,0.3c-0.1,0-0.1-0.2,0-0.5
		c0.2-0.5,0.2-1.5,0.1-3.1c-0.1-1.6-0.3-2.4-0.5-2.5c-0.1,0-0.3,0-0.3,0.1c-0.1,0.1-0.2,0.1-0.5,0.1c-0.3-0.1-0.5-0.4-0.8-0.9
		c-0.3-0.5-0.4-0.8-0.3-1.1c0-0.1,0.3-0.4,0.8-0.8c0.5-0.5,0.8-0.7,0.9-0.6c0.8,0.3,1.4,1,1.8,2.2c0.3,1.2,0.4,2.6,0.1,4.3
		c0,0.2,0,0.3-0.1,0.3c0,0,0.1,0.1,0.1,0c0,0,0.1-0.1,0.2-0.3c0.4-0.9,1.2-2.2,2.3-3.9c1-1.2,1.8-1.6,2.5-1.4c0.3,0.1,0.6,0.4,0.8,1
		C107.4,172.1,107.4,172.4,107.3,172.7"/>
	<path class="st4" d="M78.9,181.8c0.2-0.4,0.2-0.9,0.2-1.3c0-0.4,0-0.8-0.1-1.2c-0.1-0.4-0.2-0.8-0.3-1.2c-0.1-0.4-0.3-0.8-0.4-1.2
		c-0.1-0.3-0.1-0.5-0.1-0.8c0-0.3,0.1-0.5,0.2-0.7c0.1-0.2,0.2-0.3,0.4-0.4c0.2-0.1,0.3-0.1,0.5-0.1c0.2,0,0.5,0.1,0.6,0.3
		c0.2,0.2,0.3,0.4,0.4,0.6c0.1,0.2,0.1,0.4,0.1,0.7c0,0.2,0,0.4-0.1,0.6c-0.1,0.1-0.2,0.2-0.4,0.2c-0.2,0-0.5-0.1-0.8-0.2
		c0.3,0.7,0.5,1.3,0.6,2c0.1,0.6,0.2,1.2,0.1,1.8c-0.1,0.6-0.2,1.1-0.5,1.7c-0.3,0.6-0.7,1.1-1.3,1.7c0-0.3,0-0.6,0.1-1
		c0-0.3,0-0.7,0-1.1c0-0.4,0-0.7-0.1-1.1c0-0.4-0.1-0.7-0.2-1.1c-0.1-0.3-0.2-0.6-0.4-0.9c-0.2-0.3-0.4-0.5-0.7-0.7
		c0.2,0.4,0.3,0.8,0.3,1c0,0.2-0.1,0.4-0.4,0.5c-0.3,0.1-0.5,0.1-0.7,0.1c-0.2,0-0.4-0.1-0.5-0.2c-0.1-0.1-0.2-0.2-0.3-0.4
		c-0.1-0.2-0.2-0.3-0.2-0.5c-0.1-0.4-0.1-0.7,0-1c0.1-0.3,0.2-0.5,0.4-0.6c0.2-0.1,0.5-0.2,0.8-0.1c0.3,0.1,0.6,0.3,1,0.6
		c0.3,0.3,0.7,0.8,1,1.5C78.3,179.9,78.6,180.8,78.9,181.8z"/>
	<path class="st4" d="M54.3,64.3c0.2-0.1,0.3-0.2,0.5-0.2c0.2,0,0.4,0,0.6,0c0.3,0.1,0.5,0.2,0.7,0.4c0.2,0.2,0.4,0.4,0.5,0.6
		c0.2,0.3,0.3,0.5,0.3,0.8c0,0.3,0.1,0.6,0.1,0.9c0,0.3,0,0.5-0.1,0.8c0,0.3-0.1,0.5-0.2,0.8c0,0.1-0.1,0.3-0.1,0.4
		c0,0.1-0.1,0.3-0.2,0.4c-0.1-0.1-0.1-0.2,0-0.3c0-0.1,0-0.2,0.1-0.3c0.1-0.3,0.1-0.6,0.1-1c0-0.3-0.1-0.7-0.3-1
		c-0.1-0.1-0.1-0.2-0.2-0.4c-0.1-0.1-0.2-0.2-0.3-0.3c-0.1-0.1-0.2-0.2-0.4-0.2c-0.1-0.1-0.3-0.1-0.4-0.1c-0.2,0-0.4,0-0.6,0
		c-0.2,0-0.4,0.1-0.6,0.2c0,0-0.1,0-0.1,0.1c0,0,0,0.1,0,0.1c0.1,0.2,0.1,0.4,0.2,0.5c0.1,0.2,0.2,0.4,0.3,0.5
		c0.1,0.2,0.2,0.4,0.2,0.5c0.1,0.2,0.1,0.4,0.1,0.6c0,0.3,0,0.5,0,0.8c0,0.3,0,0.5-0.1,0.8c0,0.2-0.1,0.5-0.1,0.7
		c-0.1,0.2-0.2,0.4-0.3,0.6c-0.1,0.1-0.2,0.2-0.3,0.3c-0.1,0.1-0.3,0.1-0.4,0.1c-0.2,0-0.3,0-0.4-0.1c-0.1-0.1-0.2-0.2-0.3-0.3
		c-0.1-0.1-0.1-0.2-0.2-0.2c0-0.1-0.1-0.2-0.1-0.3c0,0.2,0,0.4,0,0.5c0,0.2,0,0.4-0.1,0.5c0,0.2-0.1,0.4-0.1,0.7
		c0,0.2-0.1,0.4-0.2,0.6c-0.1,0.1-0.2,0.3-0.3,0.4c-0.1,0.1-0.3,0.2-0.4,0.3c-0.1,0-0.3,0-0.4,0c-0.1,0-0.3-0.1-0.4-0.1
		c-0.1-0.1-0.3-0.2-0.4-0.4c-0.1-0.1-0.2-0.3-0.2-0.5c0-0.2-0.1-0.4-0.1-0.5c0-0.2,0-0.4,0-0.5c0-0.1,0-0.1,0-0.2c0-0.1,0-0.1,0-0.2
		c0-0.1,0-0.1,0-0.1c0,0-0.1-0.1-0.1-0.1c0,0-0.1,0-0.2,0c-0.1,0-0.1,0-0.1,0c-0.3,0.1-0.5,0.3-0.7,0.5c-0.2,0.2-0.4,0.4-0.6,0.6
		c-0.2,0.2-0.3,0.5-0.5,0.7c-0.1,0.2-0.3,0.5-0.4,0.7c-0.1,0.3-0.2,0.6-0.3,0.8c-0.1,0.3-0.2,0.6-0.3,0.9c-0.1,0.2-0.1,0.4-0.2,0.7
		c-0.1,0.3-0.2,0.6-0.3,0.9c-0.1,0.3-0.3,0.6-0.4,1c-0.2,0.3-0.3,0.6-0.5,0.9c-0.2,0.3-0.4,0.5-0.6,0.7c-0.2,0.2-0.4,0.3-0.6,0.3
		c-0.2,0-0.3,0-0.5-0.1c-0.1-0.1-0.3-0.2-0.4-0.3c-0.2-0.1-0.3-0.3-0.3-0.4c-0.1-0.2-0.1-0.3-0.2-0.5c-0.1-0.2-0.1-0.3-0.1-0.5
		c0-0.2,0-0.3,0-0.5c0-0.5,0-1.1,0.2-1.6c0.1-0.5,0.3-1,0.6-1.5c0.1-0.3,0.3-0.6,0.5-0.8c0.2-0.3,0.4-0.5,0.6-0.8
		c0.3-0.3,0.5-0.6,0.8-0.8c0.3-0.3,0.6-0.5,0.9-0.8c0.2-0.2,0.4-0.4,0.6-0.5c0.2-0.2,0.4-0.4,0.6-0.5c0.3-0.2,0.6-0.5,0.8-0.8
		c0.2-0.3,0.5-0.6,0.7-0.9c0.1-0.1,0.1-0.2,0.2-0.3c0-0.1,0.1-0.2,0.2-0.2c0,0.1-0.1,0.3-0.1,0.4c-0.1,0.1-0.1,0.2-0.2,0.4
		c-0.1,0.3-0.3,0.6-0.5,0.8c-0.2,0.3-0.4,0.5-0.6,0.8c-0.3,0.3-0.6,0.6-0.9,0.9c-0.3,0.3-0.6,0.5-0.9,0.8c-0.3,0.3-0.7,0.6-1,0.9
		c-0.3,0.3-0.6,0.6-0.9,0.9c-0.2,0.2-0.4,0.5-0.5,0.7c-0.1,0.3-0.3,0.5-0.4,0.8c-0.2,0.4-0.3,0.7-0.3,1.1c0,0.2,0,0.3,0.1,0.5
		c0.1,0.2,0.1,0.3,0.2,0.5c0.1,0.1,0.2,0.3,0.3,0.4c0.1,0.1,0.3,0.2,0.5,0.2c0.1,0,0.3,0,0.4,0c0.1-0.1,0.2-0.1,0.3-0.2
		c0.2-0.1,0.3-0.3,0.4-0.5c0.1-0.2,0.2-0.3,0.3-0.5c0.1-0.2,0.2-0.4,0.3-0.6c0.1-0.2,0.2-0.4,0.3-0.6c0.1-0.3,0.2-0.5,0.3-0.7
		c0.1-0.2,0.2-0.5,0.3-0.7c0.1-0.2,0.1-0.3,0.2-0.5c0.1-0.2,0.1-0.3,0.2-0.5c0.1-0.2,0.2-0.5,0.3-0.7c0.1-0.2,0.2-0.5,0.3-0.7
		c0.1-0.2,0.2-0.4,0.4-0.6c0.1-0.2,0.3-0.4,0.4-0.6c0.1-0.2,0.3-0.3,0.4-0.5c0.2-0.1,0.3-0.3,0.5-0.4c0.1,0,0.2-0.1,0.2-0.1
		c0.1,0,0.2-0.1,0.3-0.1c0.1,0,0.2,0,0.3,0c0.1,0,0.2,0.1,0.2,0.2c0,0.2,0,0.5,0,0.7c0,0.2,0,0.5,0,0.7c0,0.2,0,0.3,0.1,0.5
		c0.1,0.2,0.2,0.3,0.3,0.4c0.1,0.1,0.3,0.2,0.4,0.2c0.2,0,0.3,0,0.4-0.1c0.2-0.1,0.3-0.2,0.4-0.3c0.1-0.1,0.2-0.3,0.3-0.4
		c0.1-0.2,0.2-0.4,0.2-0.6c0-0.2,0-0.4,0-0.7c-0.1-0.3-0.1-0.7-0.2-1c-0.1-0.3-0.1-0.7-0.1-1c0-0.1,0-0.3,0-0.4c0-0.1,0-0.3,0-0.4
		c0-0.1,0-0.2,0-0.3c0-0.1,0-0.2,0.1-0.3c0.1,0.1,0.1,0.2,0.1,0.4c0,0.1,0.1,0.2,0.1,0.4c0.1,0.3,0.1,0.6,0.2,0.9
		c0.1,0.3,0.2,0.6,0.3,0.9c0,0.1,0.1,0.2,0.2,0.4c0.1,0.1,0.2,0.2,0.3,0.3c0.1,0.1,0.3,0.1,0.4,0.1c0.2,0,0.3,0,0.4-0.1
		c0.1-0.1,0.2-0.1,0.2-0.2c0.1-0.1,0.1-0.2,0.2-0.3c0-0.1,0-0.2,0-0.3c0-0.1-0.1-0.2-0.1-0.3c-0.1-0.2-0.2-0.4-0.2-0.6
		c-0.1-0.2-0.2-0.4-0.3-0.6c-0.1-0.2-0.2-0.4-0.2-0.6c0-0.2,0-0.4,0-0.6c0-0.2,0.1-0.4,0.2-0.7c0.1-0.2,0.2-0.4,0.3-0.6
		c0.1-0.1,0.1-0.3,0.2-0.4C54.1,64.5,54.2,64.3,54.3,64.3z"/>
</g>
<g id="Layer_3" class="st0">
	
		<image style="display:inline;overflow:visible;" width="404" height="316" xlink:href="../../Downloads/6811da60992967.Y3JvcCwxNDIwLDExMTEsMCwxNTQ.jpg"  transform="matrix(1 0 0 1 -98.4737 6.8316)">
	</image>
</g>
<g id="Layer_4" class="st0">
	<path class="st6" d="M-198.5,134.5"/>
	<path class="st6" d="M-175.1,141.3"/>
	<g class="st1">
		<path class="st7" d="M-163.1,145.1c-0.2-0.3-0.4-0.6-0.6-0.9"/>
		<path class="st7" d="M-162.3,146.5c-0.1-0.2-0.3-0.4-0.4-0.6"/>
	</g>
	
		<image style="overflow:visible;" width="236" height="228" xlink:href="../563527dbd5096c36e5fceb8208a5415d.jpg"  transform="matrix(1 0 0 1 -40 -90)">
	</image>
	<ellipse transform="matrix(0.19 -0.9818 0.9818 0.19 75.7887 158.77)" class="st8" cx="134.1" cy="33.5" rx="20.5" ry="16"/>
	<path class="st9" d="M220.8,12c0,0-6.8,3.8-10.1,10.3l4.2,73.1c0,0-42.8,31.4-55.5,65.7c0,0,28.4-41.4,67.3-63.4
		c0,0-8.6-82.1-5-84.5c0,0,0.2-1,1.4-1.8L220.8,12z"/>
	<g class="st1">
		<path class="st10" d="M240.1,17.2c-2.5,1.4-8.2,6.4-9.8,10c0.9,24.4,4.3,48.7,3.8,73c-32.5,21-57.4,37.3-75.5,73.7
			c25.8-33.8,50.6-51.1,87.7-71.2c-0.9-20.4-11.5-67.8-5.1-84.6c0.2-0.8,0.7-1.2,1.5-1.8C241,17.2,242.6,15.9,240.1,17.2z"/>
	</g>
	<g class="st1">
		<path class="st11" d="M38.3,20.8c2.7,1.4,8.6,6.3,10.2,10.1c-3,25.5-6.8,49.6-5.7,75.4c23.9,9.8,44.1,23,55.4,47
			c-19.5-23.4-38.1-32.8-67.1-41.6c-0.1-17.4,9.5-81,5.8-90C36.8,20.9,35.7,19.4,38.3,20.8z"/>
	</g>
	<g class="st1">
	</g>
	<path class="st12" d="M98,51.4c0,0-22.9-23.8-33.1-23.7l-5.5,65.1c0,0,28.9,18.8,35.8,46.6c0,0-18.6-30.1-46.1-40.5L56,10.7
		c0,0,36,24.3,43.8,42.1L98,51.4z"/>
	<path class="st12" d="M98.4,163.9c-1.1-4.4-10.4-29.7-73-45.9c-1.3-0.3-2.2-1.6-2.1-3l4.8-70.3c0-0.5-0.1-1-0.3-1.5
		c-0.7-1.4-2.4-4.3-4.9-6.2c-1.8-1.3-4.4-0.2-4.6,2l-7.6,83.3c-0.1,1.5,0.9,2.9,2.4,3.1c12.8,1.7,67.6,10.9,85,41.1l0.3-1.4
		C98.5,164.8,98.5,164.3,98.4,163.9z"/>
	<path class="st8" d="M207.1,92.1l-3.2-83.8c0-1-1.2-1.4-1.9-0.7c-1.6,1.7-3.3,3.3-4.9,5c-2.4,2.4-4.8,4.8-7.3,7.2
		c-2.9,2.9-5.9,5.7-8.9,8.5c-3.2,3-6.5,6.1-9.8,9c-3.3,2.9-6.5,5.8-9.9,8.6c-3,2.5-6.1,5-9.3,7.3c-2.5,1.9-5.2,3.7-7.9,5.2
		c-2.6,1.4-5.3,2.6-7.9,3.8c-6.2,2.8-13.9,5.3-20.3,1.4c-0.1,0-0.1-0.1-0.2-0.1c-2.6-1.6-4.6-4.1-5.9-6.9c-0.4-0.8-1.6-0.8-2,0.1
		c-0.4,0.9-0.8,1.9-1.1,2.8c-0.5,1.3-0.9,2.6-1.4,3.9c-0.5,1.6-1,3.3-1.4,5c-0.5,2-0.9,4-1.3,6c-0.4,2.3-0.8,4.7-1,7
		c-0.3,2.7-0.5,5.3-0.6,8c-0.1,3-0.1,6,0,9c0.1,3.3,0.4,6.6,0.7,9.9c0.4,3.6,0.9,7.2,1.6,10.8c0.7,3.9,1.6,7.8,2.7,11.6
		c1.1,4.2,2.4,8.4,3.9,12.5c1.5,4.3,3,8.5,4.8,12.7c1.3,3,2.7,6,4.5,8.7c4.2,6.5,8.4,13.1,12.5,19.6l0.8,1.2c-0.5-2.3-0.8-4.9-1-7.6
		c-3.6-18.1-9.3-77.3,48.9-139.6c2.2-2.8,4.4-5.6,6.6-8.3c1.6-1.9,3.2-3.8,4.8-5.7c0.7-0.8,1.9-0.3,2,0.7l3.8,65.8
		c0,0.3-0.1,0.6-0.3,0.8c-2.9,3.1-24.8,26.8-35.2,50.3c-0.5,1.2,1.1,2.2,1.9,1.1c10.4-14.5,33.8-46.3,42.7-49.6
		C206.8,93,207.1,92.5,207.1,92.1z"/>
	<path class="st13" d="M9.5,211"/>
	<path class="st13" d="M9.5,235"/>
	<path class="st13" d="M241.5,236v11.5c0,6.6-5.4,12-12,12h-208c-6.6,0-12-5.4-12-12V236"/>
	<path class="st13" d="M241.5,235"/>
	<path class="st13" d="M241.5,211"/>
	<path class="st13" d="M9.5,211v-8.5c0-6.6,5.4-12,12-12h208c6.6,0,12,5.4,12,12v8.5"/>
	<path class="st9" d="M39.8,229c0.4,0.6,1.2,0.9,2.5,0.9v4.8c-1.2,0-2.2-0.3-3-1s-1.3-1.5-1.5-2.5s-0.2-2.2,0.2-3.4
		c-1.1,1.6-2.1,2.8-3.2,3.7s-2.1,1.6-3.1,1.9s-1.9,0.6-2.8,0.6c-0.8,0-1.5-0.2-2.1-0.5s-1.1-0.7-1.5-1.2s-0.7-0.9-1-1.4
		s-0.5-1-0.7-1.6l2.9-6.5c2.1-0.4,3.8-0.7,5.1-0.9c1.4-0.3,2.6-0.7,3.8-1.3s2-1.3,2.5-2.1s0.4-1.7-0.1-2.6c0,0,0.2,0.2,0.4,0.6
		s0.4,0.8,0.7,1.4s0.4,1.2,0.6,1.9s0.2,1.4,0.1,2.1s-0.3,1.4-0.8,2s-1.1,1.2-2.1,1.6s-2.2,0.8-3.8,0.9c-1.4,0.1-2.6,0.1-3.7,0
		s-2.3-0.4-3.6-0.9c0.5,0.6,1.1,1,1.7,1.4s1.4,0.7,2.3,0.9s2.1,0.4,3.5,0.4c1,0,1.9-0.2,2.7-0.4s1.4-0.6,1.9-0.9s1-0.8,1.5-1.3
		C39.3,227.4,39.4,228.4,39.8,229z M32.1,215.6l-2.9,2l-2.7-4l4-2.7l1.3,2l2.9-2l2.7,4l-4,2.7L32.1,215.6z"/>
	<path class="st9" d="M53.5,229.5c0.3,0.2,0.7,0.3,1.2,0.4s1.1,0,1.8,0v4.8c-0.4,0-0.7-0.2-1.1-0.5s-0.7-0.8-0.9-1.3
		s-0.5-1.1-0.8-1.6s-0.4-1.1-0.6-1.5c-0.8,0.5-1.6,1-2.4,1.6s-1.5,1.1-2.4,1.6s-1.7,0.9-2.7,1.3s-2.2,0.5-3.6,0.5v-4.8
		c1.1,0,2.4,0,3.8-0.1s2.9-0.1,4.3-0.3c-0.4-0.4-0.9-0.7-1.5-1s-1.3-0.6-2-0.9s-1.6-0.4-2.6-0.4l3.5-4.7c1.9,0,3.6,0.2,5,0.6
		s2.8,1,4.1,1.8l-2,4C54.4,229.1,53.9,229.3,53.5,229.5z"/>
	<path class="st9" d="M67.7,224.2c0.7,0.7,1,1.6,1,2.4c0,0.7-0.2,1.5-0.5,2.5s-0.8,1.8-1.2,2.7s-1,1.8-1.7,2.9h-8.9v-4.8h10.5
		c-1.1-0.8-2.6-2-4.6-3.6l1.8-7.4c0.1,0.8,0.5,1.7,1.2,2.6S66.8,223.3,67.7,224.2z M64.8,240.1l-4.1,2.7l-2.7-4l4.1-2.7L64.8,240.1z
		"/>
	<path class="st9" d="M76.9,229.9v4.8c-1.2,0-2.2-0.3-2.9-0.8s-1.2-1.3-1.5-2.2s-0.6-1.9-0.7-3s-0.2-2.2-0.4-3.2
		c-0.2-1.5-0.3-3.4-0.5-5.5c-0.3-2.8-0.6-4.9-0.8-6.5l5.4-5.9c0.2,2.6,0.2,5.2-0.1,7.8s-0.7,5-1.1,7.2s-1.1,4.6-2,7.3L76.9,229.9z"
		/>
	<path class="st9" d="M89,229.9h0.6v4.8c-0.8,0-1.4-0.2-1.9-0.5s-0.9-0.8-1.2-1.4s-0.6-1.1-0.7-1.8s-0.3-1.2-0.4-1.8s-0.2-1-0.3-1.4
		c0,0.7,0,1.4-0.1,2.2s-0.3,1.5-0.6,2.2s-0.9,1.3-1.6,1.7s-1.7,0.7-3,0.7h-3v-4.8h3.5c0.7,0,1.2-0.1,1.7-0.2s0.8-0.4,1.1-0.7
		s0.5-0.6,0.7-0.9s0.3-0.6,0.4-1s0.2-0.6,0.2-0.9s0.1-0.5,0.1-0.7s0.1-0.2,0.1-0.3s0.1,0.1,0.2,0.3c0.1,0.2,0.3,0.6,0.5,1
		s0.5,0.9,0.8,1.4s0.7,0.9,1.2,1.3S88.4,229.9,89,229.9z M82.5,221.4l-2.9,2l-2.7-4l4.1-2.7l1.3,2l2.9-2l2.7,4.1l-4.1,2.7
		L82.5,221.4z"/>
	<path class="st9" d="M102.2,227.3c0.1,0.6,0,1.5-0.2,2.6s-0.7,2.7-1.3,4.8H89.5v-4.8h3.1c1.4-3.6,2.6-6.5,3.4-8.6
		c1.1,0.5,2,1,2.7,1.5s1.4,1.1,2.1,1.9S101.9,226.3,102.2,227.3z M92.9,229.9h6.9c-0.5-0.5-1.1-1-2-1.6s-2.1-1.2-3.5-1.9
		C93.9,227.3,93.5,228.4,92.9,229.9z"/>
	<path class="st9" d="M117.3,222.7c0.6,0.4,1.2,1,1.9,1.7s1.1,1.7,1.5,2.8s0.6,2.6,0.5,4.2c0,0.9-0.1,2-0.3,3.3s-0.5,2.5-1,3.7
		s-1.1,2.3-2,3.1c-0.5,0.5-1.4,1-2.8,1.6s-3.5,1.1-6.4,1.5s-6.8,0.5-11.7,0.4c1.7,0,3.5-0.2,5.4-0.7c3.2-0.8,6.3-2.1,9.3-3.9
		s5.2-3.7,6.6-5.7c0.4-0.6,0.7-1.2,0.9-1.7c-0.4,0.4-0.9,0.8-1.5,1s-1.2,0.4-1.8,0.5c-0.8,0.1-1.6,0-2.4-0.3s-1.4-0.7-2-1.2
		s-0.8-1.4-0.8-2.4c0-1,0.1-2,0.4-2.9s0.7-1.8,1.1-2.5s0.9-1.4,1.3-2s0.9-1.2,1.5-1.8C115.9,221.9,116.6,222.2,117.3,222.7z
		 M114.4,229.9h4.4c-0.8-0.8-1.7-1.4-2.7-1.9s-2.4-1-4-1.5c-0.3,0.5-0.5,0.9-0.6,1.2s-0.1,0.7,0,1s0.4,0.6,0.8,0.8
		S113.5,229.9,114.4,229.9z"/>
	<g class="st1">
		<path class="st11" d="M155.7,229.9h3.5v4.8h-1.9c-0.1,0-0.2,0-0.3,0c-0.1,0.5-0.2,1.1-0.5,1.9s-0.7,1.6-1.2,2.5s-1.3,1.7-2.2,2.5
			s-2.1,1.5-3.5,2s-3.1,0.8-5.1,0.8c-2.1,0-4-0.4-5.6-1.1s-3-1.7-4-3s-1.6-2.6-1.7-4.2c-0.2-2.6,0.2-4.7,1.2-6.5s2.2-3.2,3.8-4.3
			s3.3-1.8,5.2-2.2c-0.3-0.4-0.5-0.8-0.7-1.2s-0.4-1-0.4-1.5c-0.1-1.6,0.2-3.2,1-4.9s1.6-2.9,2.6-3.6c1.5-0.1,2.7,0.2,3.8,0.9
			s2,1.5,2.8,2.5s1.5,2.2,2.3,3.8c-0.5-0.4-1-0.7-1.6-0.9s-1.3-0.4-2.1-0.4s-1.9,0-3.2,0.3c-1,0.2-1.9,0.6-2.7,1.1s-1.6,1.2-2.5,2.1
			l0.1,0.1c0.8,0.6,1.9,1,3.3,1.2s2.8,0.2,4.3,0.1s3.2-0.3,5.3-0.7l-2,4.7c-0.1,0-0.5,0.1-1.1,0.2s-1.3,0.2-2.2,0.3s-1.9,0.3-3,0.4
			s-2.2,0.3-3.4,0.5s-2.3,0.4-3.5,0.6s-2.2,0.4-3.1,0.6s-1.8,0.4-2.4,0.6c-0.5,2-0.3,3.8,0.7,5.3s2.5,2.6,4.5,3.4s4.2,1.2,6.6,1.1
			c2.6-0.1,4.6-0.4,6.1-0.9s2.5-1.2,3.1-1.9s1-1.3,1.1-1.8c-1.5-0.1-2.6-0.6-3.3-1.5s-1.1-1.9-1.2-3.2s0.2-2.3,0.8-3.4
			c-0.1,0.3-0.2,0.6-0.3,1s0,0.7,0.1,1.1s0.4,0.7,0.8,0.9S154.9,229.9,155.7,229.9z"/>
	</g>
	<g class="st1">
		<path class="st11" d="M172.2,229.9h0.6v4.8c-0.8,0-1.4-0.2-1.9-0.5s-0.9-0.8-1.2-1.4s-0.6-1.1-0.7-1.8s-0.3-1.2-0.4-1.8
			s-0.2-1-0.3-1.4c0,0.7,0,1.4,0,2.2s-0.3,1.5-0.6,2.2s-0.9,1.3-1.6,1.7s-1.7,0.7-3,0.7H159v-4.8h4.4c0.7,0,1.2-0.1,1.7-0.2
			s0.8-0.4,1.1-0.7s0.5-0.6,0.7-0.9s0.3-0.6,0.4-1s0.2-0.6,0.2-0.9s0.1-0.5,0.1-0.7s0.1-0.2,0.1-0.3s0.1,0.1,0.2,0.3
			c0.1,0.2,0.3,0.6,0.5,1s0.5,0.9,0.8,1.4s0.7,0.9,1.2,1.3S171.6,229.9,172.2,229.9z M166,238.1l3-2l2.7,4l-4,2.7l-1.4-2l-3,2
			l-2.7-4l4-2.7L166,238.1z"/>
	</g>
	<g class="st1">
		<path class="st11" d="M190.2,234.7c-0.9,0-1.8-0.1-2.5-0.4s-1.5-0.7-2.2-1.2s-1.3-1-1.9-1.6l0.8,3.2h-11.7v-4.8h3
			c0-1.3,0.4-2.5,1-3.6s1.3-1.9,2.1-2.6s1.8-1.4,3.1-2.2c0.7,1.1,1.3,2.1,1.9,2.9s1.2,1.6,1.9,2.5s1.5,1.5,2.2,2.1s1.5,0.9,2.2,0.9
			V234.7z M179.5,229.9h2.7c-0.4-0.5-0.9-1-1.2-1.5c-0.5-0.5-1-1-1.7-1.4s-1.3-0.5-1.8-0.4s-0.9,0.6-1,1.5c0,0.3,0,0.5,0.2,0.8
			s0.5,0.5,0.9,0.6S178.6,229.9,179.5,229.9z"/>
	</g>
	<g class="st1">
		<path class="st11" d="M211.4,225.7c0.1,0.3,0.2,0.6,0.4,1.1s0.4,0.9,0.7,1.4s0.7,0.9,1.2,1.2s1,0.5,1.7,0.5v4.8
			c-0.5,0-1-0.2-1.4-0.5s-0.7-0.8-1-1.4s-0.5-1.1-0.7-1.8s-0.3-1.2-0.5-1.8s-0.2-1-0.3-1.4c0.1,0.9,0,1.9-0.1,3s-0.6,1.9-1.2,2.7
			s-1.6,1.1-3,1.2c-1-0.1-1.8-0.5-2.3-1.4s-0.8-1.8-1-2.9s-0.4-1.9-0.5-2.5c0.1,0.9,0,1.9-0.1,3s-0.6,1.9-1.2,2.7s-1.6,1.1-3,1.2
			c-1.1-0.1-1.8-0.5-2.3-1.4s-0.8-1.8-1-2.9s-0.4-1.9-0.5-2.5c0,0.7,0,1.4,0,2.2s-0.2,1.5-0.5,2.2s-0.7,1.3-1.3,1.7
			s-1.4,0.7-2.4,0.7H190v-4.8h1.2c0.5,0,0.9-0.1,1.2-0.2s0.7-0.3,0.9-0.5s0.4-0.5,0.6-0.7s0.3-0.6,0.4-0.8s0.2-0.6,0.2-0.8
			s0.1-0.5,0.1-0.7s0-0.4,0.1-0.5s0.1-0.2,0.1-0.2s0.1,0.1,0.2,0.3c0.1,0.2,0.2,0.6,0.4,1s0.4,0.9,0.7,1.4s0.6,0.9,1,1.3
			s0.8,0.5,1.4,0.5h0.9c0.5,0,0.9-0.1,1.2-0.2s0.7-0.3,0.9-0.5s0.5-0.5,0.6-0.7s0.3-0.6,0.4-0.8s0.2-0.6,0.2-0.8s0.1-0.5,0.1-0.7
			s0.1-0.4,0.1-0.5s0-0.2,0.1-0.2s0.1,0.1,0.2,0.3c0.1,0.2,0.2,0.6,0.4,1s0.4,0.9,0.7,1.4s0.6,0.9,1,1.3s0.9,0.5,1.4,0.5h0.9
			c0.7,0,1.3-0.1,1.8-0.4s0.8-0.6,1-1.1s0.4-0.8,0.5-1.3s0.2-0.8,0.2-1.1s0.1-0.5,0.1-0.6S211.3,225.4,211.4,225.7z"/>
	</g>
	<g class="st1">
		<path class="st11" d="M226.6,224.2c0.7,0.7,1,1.6,1,2.4c0,0.7-0.2,1.5-0.5,2.5s-0.8,1.8-1.2,2.7s-1,1.8-1.7,2.9h-8.9v-4.8h10.5
			c-1.1-0.8-2.6-2-4.6-3.6l1.8-7.4c0.1,0.8,0.5,1.7,1.2,2.6S225.7,223.3,226.6,224.2z M222.4,214.1l-2.4,1.6l-2.7-4l4-2.7l1.1,1.6
			l2.4-1.6l2.7,4.1l-4,2.7L222.4,214.1z"/>
	</g>
</g>
<g id="Layer_6">
	<polyline class="st14" points="55,5 249,5 249,183 	"/>
	<path class="st14" d="M55,5"/>
	<path class="st14" d="M6,5"/>
	<polyline class="st15" points="206,228 6,228 6,46 	"/>
	<path class="st10" d="M106.3,143.7c1.9,1.3,3.8,3.2,5.7,5.6c1.9,2.4,3.4,5.4,4.7,9.2c1.2,3.7,1.8,8.2,1.7,13.5
		c0,3-0.4,6.5-0.9,10.5c-0.6,4-1.6,8.1-3,12c-1.4,4-3.5,7.3-6.2,10c-1.4,1.6-4.3,3.3-8.6,5.3c-4.3,1.9-10.9,3.5-19.7,4.8
		c-8.8,1.3-20.8,1.7-35.9,1.3c5.3,0.1,10.7-0.6,16.5-2.1c9.8-2.5,19.3-6.7,28.5-12.5c9.2-5.8,15.9-11.9,20.1-18.2
		c1.2-2,2.1-3.8,2.6-5.4c-1.1,1.4-2.6,2.5-4.5,3.3c-1.9,0.8-3.7,1.3-5.5,1.5c-2.6,0.2-5,0-7.4-0.8c-2.4-0.8-4.4-2.1-6-4
		s-2.4-4.4-2.4-7.6c0-3.2,0.5-6.3,1.4-9.3c0.9-3,2-5.7,3.4-8.2c1.3-2.5,2.7-4.6,4-6.5c1.3-1.8,2.9-3.8,4.7-5.8
		C102.1,141.2,104.4,142.4,106.3,143.7z M97.6,167h13.5c-2.4-2.5-5.2-4.5-8.4-6.2c-3.2-1.6-7.3-3.2-12.4-4.7
		c-0.9,1.5-1.4,2.7-1.7,3.8c-0.3,1.1-0.3,2.2,0,3.2c0.3,1.1,1.1,2,2.5,2.7C92.5,166.6,94.7,167,97.6,167z"/>
	<path class="st10" d="M192.7,180.1L192.7,180.1l1.1-0.1v15.3h-0.7c-1.4,0-2.8-0.5-4.3-1.5c-1.5-1-2.7-2.5-3.7-4.7s-1.5-5-1.5-8.4
		c-0.8,2.9-1.9,6.2-3.5,9.9c-1.6,3.7-3.8,7.2-6.5,10.7c-2.8,3.5-6.3,6.3-10.6,8.6c-4.3,2.2-9.5,3.4-15.7,3.5
		c-5-0.2-9.1-1.7-12.5-4.7c-3.4-3-5.4-6.7-6.2-11.2c-0.8-4.5,0.2-9.2,3-13.9c2.8-4.7,7.8-9,15.1-12.7l-1.1-1.8
		c-2.8-4.1-4-8.6-3.5-13.5c0.1-0.9,0.3-1.8,0.5-2.5c1.2-3.8,2.8-6.7,4.9-8.5c2.1-1.8,4.3-2.9,6.5-3.2c2.2-0.3,4-0.2,5.4,0.5
		c0.3,0.1,0.8,0.4,1.5,0.9c0.8,0.5,1.5,1.4,2.3,2.5c0.7,1.1,1.1,2.6,1.1,4.4c0,1.4-0.4,3.1-1.1,5c-0.8,2-2.1,4.1-4.1,6.6
		c1.3,2,2.9,4.4,4.7,7.1c4.3,6.3,5.8,12,4.6,17.1c-1.2,5.1-4.6,9.1-10.4,12.1c0.3-0.1,0.6-0.6,0.9-1.6c0.3-1,0.1-2.6-0.6-5
		c-0.7-2.4-2.4-5.8-5.1-10.2l-6.3-9.7c-2.7,2-4.8,4.4-6.3,7.3c-1.5,2.8-2.2,5.7-2.2,8.6c0,2.8,0.5,5.1,1.6,6.9
		c1.1,1.8,2.5,3.2,4.2,4.2s3.5,1.7,5.3,2.1c1.9,0.4,3.7,0.6,5.3,0.6c3.1,0,6.2-0.9,9.4-2.7c3.2-1.8,6.1-4,8.8-6.8
		c2.7-2.7,5-5.5,6.8-8.5c1.8-3,3-5.6,3.5-8c-4.8-14.7-8.5-26.3-11-34.6c-2.6-8.3-4-15.1-4.3-20.4c-0.1-4.8,1.1-8.9,3.6-12.3
		c2.6-3.4,6.1-4.9,10.7-4.5c-1.4-0.2-2.8,0-4.2,0.5c-1.4,0.5-2.6,1.2-3.6,2.3c-1,1.1-1.5,2.4-1.5,4c0,1.5,0.5,2.9,1.5,4.2
		c1.9,2.3,4.1,4.4,6.6,6.2c2.5,1.8,5.7,3.8,9.6,6v16.9c-1.4-0.1-2.7-0.2-3.9-0.5c-0.2,0-0.4-0.1-0.5-0.1c0.1,0.7,0.3,1.4,0.4,2.1
		c0.6,3.8,0.7,8.6,0.4,14.4c-0.3,5.9-1,11.1-2.1,15.7c0,0,0,0.1,0,0.1c0.2,0.8,0.6,1.6,1.2,2.5c0.6,0.8,1.3,1.5,2.4,2
		C189.7,179.8,191,180.1,192.7,180.1z M153.4,146.5c-0.5,1.3-0.3,3,0.4,5.1c0.7,2.1,2.4,5.1,4.9,9.1c1.7-2.2,2.9-4.5,3.6-6.8
		c0.8-2.3,0.9-4.6,0.4-6.9c-0.7-2.4-2.2-3.7-4.6-3.9h-0.1c-1.3,0-2.3,0.4-3.1,1.1C154.2,144.9,153.7,145.7,153.4,146.5z"/>
	<path class="st10" d="M103.5,79.4c0.8,0.6,1.9,0.9,3.2,1c1.3,0.1,3,0.1,5,0.1v13.2c-1,0-2-0.5-3-1.4c-0.9-0.9-1.8-2.1-2.6-3.6
		c-0.8-1.4-1.5-2.9-2.1-4.5c-0.6-1.5-1.2-3-1.6-4.3c-2.3,1.3-4.5,2.8-6.6,4.4c-2.1,1.6-4.3,3.1-6.6,4.5c-2.3,1.4-4.8,2.6-7.6,3.5
		c-2.8,0.9-6.1,1.4-9.9,1.4V80.5c3.1,0,6.6,0,10.5-0.1s8-0.4,12-0.8c-1.1-1-2.5-1.9-4.1-2.9c-1.6-0.9-3.5-1.7-5.6-2.4
		c-2.1-0.7-4.5-1-7.1-1l9.7-13.2c5.3,0,9.9,0.5,13.8,1.7c4,1.1,7.8,2.8,11.5,4.9l-5.4,11.1C105.9,78.2,104.6,78.8,103.5,79.4z"/>
	<path class="st10" d="M168.6,80.5v13.2c-3.4,0-6.1-0.8-8-2.3c-1.9-1.5-3.3-3.6-4.2-6.1c-0.9-2.5-1.5-5.3-1.9-8.3
		c-0.4-3-0.7-6-1-8.9c-0.5-4.3-0.9-9.3-1.5-15.2c-0.9-7.6-1.6-13.7-2.2-18l15-16.5c0.6,7.2,0.5,14.4-0.2,21.6
		c-0.8,7.2-1.8,13.9-3.2,19.9c-1.4,6.1-3.2,12.8-5.4,20.3L168.6,80.5z"/>
	<path class="st10" d="M238.7,73.2c0.3,1.7,0,4.1-0.7,7.3c-0.7,3.2-1.9,7.6-3.6,13.2h-30.9V80.5h8.5c3.9-10,7.1-17.9,9.5-23.9
		c3,1.3,5.5,2.7,7.5,4.1c2,1.4,3.9,3.1,5.7,5.2C236.7,67.9,237.9,70.4,238.7,73.2z M212.9,80.5h19.1c-1.3-1.3-3.1-2.8-5.6-4.4
		c-2.5-1.6-5.7-3.4-9.7-5.3C215.8,73.1,214.5,76.4,212.9,80.5z"/>
	<path class="st10" d="M43.6,119.6c0.3-1,0.7-2.2,1-3.8c0.4-1.6,0.8-3,1.3-4.4c0.4-1,0.7-1.8,1-2.4c0.3-0.6,0.6-1.1,1.1-1.5
		c0.4-0.3,1-0.5,1.7-0.5c0.7,0,1.6,0.1,2.8,0.3c1.2,0.3,2.4,0.5,3.6,0.6c1.1,0.2,2.3,0.3,3.4,0.3c1.1,0,2.3-0.1,3.4-0.2
		c1.1-0.2,2.4-0.5,3.7-0.9c-0.2,1-0.3,1.9-0.4,2.9c-0.1,0.9-0.3,1.9-0.4,2.9c-1.1,2.3-2.2,4-3.4,5.2c-1.2,1.2-2.5,2-3.9,2.6
		c-1.5,0.5-3.1,0.8-4.9,0.9c-1.8,0.1-3.9,0.1-6.3,0.1c1.3-0.3,2.4-0.5,3.3-0.7c0.9-0.2,1.7-0.5,2.4-0.7c0.7-0.3,1.3-0.5,1.8-0.9
		c0.6-0.3,1.1-0.7,1.7-1.1c0.6-0.4,1.2-0.9,1.9-1.5c0.7-0.6,1.6-1.2,2.6-2c-2.3-0.1-4.2-0.2-5.8-0.3c-1.6-0.1-3-0.1-4.2,0.2
		c-1.3,0.2-2.4,0.7-3.6,1.5C46.1,116.7,44.9,117.9,43.6,119.6z"/>
	<path class="st10" d="M34.9,21.9c0.3-0.8,0.6-1.9,0.9-3.3c0.3-1.3,0.7-2.6,1.1-3.8c0.3-0.8,0.6-1.5,0.8-2.1c0.2-0.6,0.6-1,0.9-1.3
		c0.4-0.3,0.9-0.4,1.5-0.5c0.6,0,1.4,0.1,2.4,0.3c1.1,0.2,2.1,0.4,3.1,0.6c1,0.1,1.9,0.2,2.9,0.2c1,0,2-0.1,2.9-0.2
		c1-0.2,2-0.4,3.2-0.8c-0.1,0.8-0.3,1.7-0.4,2.5c-0.1,0.8-0.2,1.6-0.4,2.5c-0.9,2-1.9,3.5-2.9,4.5c-1,1-2.1,1.8-3.4,2.2
		c-1.3,0.4-2.7,0.7-4.3,0.7c-1.6,0-3.4,0.1-5.5,0.1c1.1-0.2,2.1-0.4,2.8-0.6c0.8-0.2,1.5-0.4,2-0.6c0.6-0.2,1.1-0.5,1.6-0.7
		c0.5-0.3,1-0.6,1.5-1c0.5-0.4,1.1-0.8,1.7-1.3c0.6-0.5,1.3-1.1,2.2-1.7c-2-0.1-3.7-0.1-5-0.2c-1.4-0.1-2.6,0-3.7,0.1
		c-1.1,0.2-2.1,0.6-3.1,1.3C37.1,19.4,36.1,20.4,34.9,21.9z"/>
	<path class="st10" d="M23.2,57.7c-0.2-1.9-0.6-3.5-1.4-4.8c-0.8-1.3-1.8-2.4-2.9-3.3c-0.4,0.4-1,0.6-1.7,0.6c-1.2,0-2-0.3-2.6-1
		c-0.5-0.7-0.8-1.5-0.8-2.4c0-0.7,0.1-1.4,0.3-2c0.2-0.7,0.5-1.2,0.8-1.7c1,0.6,2,1.2,3,1.8c1,0.7,2,1.4,2.8,2.3
		c0.8,0.9,1.5,1.9,2.1,3c0.6,1.1,0.9,2.4,1,3.9c0.4-1.4,0.7-2.8,0.7-4c0-1.3-0.2-2.6-0.6-3.8c-0.4-1.2-0.9-2.4-1.6-3.5
		c-0.6-1.1-1.4-2.2-2.1-3.2c-0.8-1-1.6-2-2.3-2.8c-0.8-1-1.7-2-2.7-2.9c-0.9-0.9-1.8-1.9-2.6-3c-0.8-1.1-1.4-2.2-1.9-3.5
		c-0.5-1.3-0.8-2.7-0.8-4.2c0-4,0.9-7.1,2.8-9.4c1.9-2.2,4.4-3.3,7.5-3.3c1.2,0,2.3,0.2,3.4,0.5c1.1,0.3,2.1,0.8,3,1.4
		c0.9,0.6,1.6,1.4,2.2,2.2c0.6,0.9,0.9,1.9,1,3c0,0-0.1,0-0.1,0c0,0,0,0-0.1,0c0,0-0.1-0.1-0.5-0.4c-0.3-0.3-0.7-0.5-1.2-0.9
		c-0.5-0.3-0.9-0.6-1.3-0.9c-0.4-0.3-0.6-0.4-0.6-0.5c0-0.1,0.1-0.1,0.2-0.1c0.1,0,0.2,0,0.1,0c0,0-0.2-0.1-0.7-0.1
		c-0.4-0.1-0.7-0.2-0.7-0.3c0,0,0.1-0.1,0.2-0.2c-0.8-0.1-1.7-0.2-2.7-0.4c-1-0.2-2-0.3-3.1-0.3c-1.1,0-2.1,0.1-3.1,0.4
		c-1,0.3-1.9,0.7-2.6,1.3c-0.8,0.6-1.4,1.3-1.8,2.2c-0.5,0.9-0.7,2-0.7,3.2c0,1.4,0.3,2.7,0.8,3.9c0.5,1.2,1.2,2.3,1.9,3.3
		c0.8,1,1.6,2,2.5,3c0.9,0.9,1.7,1.9,2.5,2.8c0.9,1.1,1.7,2.2,2.6,3.3c0.8,1.1,1.5,2.3,2.2,3.5c0.6,1.2,1.1,2.5,1.5,3.9
		c0.4,1.4,0.6,2.9,0.6,4.4c0,0.6,0,1.4-0.1,2.3c-0.1,0.9-0.2,1.8-0.4,2.7c-0.2,0.9-0.5,1.7-0.9,2.4C24.3,57,23.8,57.5,23.2,57.7z"/>
	<path class="st10" d="M205.9,98.3c2.1,0,3.9,1.1,5.6,3.5c1.6,2.4,2.7,5.4,3.4,9.3c0.1,0.4,0.1,0.6,0.1,0.7c0.1,0.1,0.1,0.1,0.2,0
		c0-0.1,0.1-0.4,0.3-0.7c0.4-2.3,1.1-5.7,2.4-10.3c1.3-3.2,2.9-4.8,4.5-4.8c0.9,0,1.7,0.5,2.5,1.7c0.8,1,1.2,1.8,1.2,2.4
		c0,0.4-0.2,1.1-0.4,1.8c-0.3,1.1-0.7,1.6-1.1,1.6c-0.2,0-0.6-0.4-1.3-1.2c-0.6-0.8-1.3-1.1-1.9-1.1c-1.4,0-2.9,3.3-4,10.1
		c-0.6,3-1.2,5.1-1.9,6.2c-0.4,0.9-0.8,1.3-1.2,1.3c-0.3,0-0.4-0.4-0.4-1.1c0-1.2-0.7-3.5-2.1-6.9c-1.3-3.4-2.3-5.1-3-5.1
		c-0.4,0-0.6,0.1-0.8,0.4c-0.1,0.3-0.4,0.4-1,0.4c-0.5,0-1.3-0.4-2.4-1.4c-1-0.9-1.4-1.6-1.4-2.1c0-0.3,0.4-1.1,1.3-2.5
		C205.2,98.9,205.7,98.3,205.9,98.3"/>
	<path class="st10" d="M189.9,24.7c1.5,0,2.8,0.8,4,2.6c1.2,1.7,1.9,4,2.4,6.8c0.1,0.3,0.1,0.5,0.1,0.5c0.1,0.1,0.1,0.1,0.1,0
		c0-0.1,0.1-0.3,0.2-0.5c0.3-1.7,0.8-4.2,1.7-7.5c1-2.4,2.1-3.5,3.2-3.5c0.6,0,1.2,0.4,1.8,1.2c0.6,0.7,0.8,1.3,0.8,1.7
		c0,0.3-0.1,0.8-0.3,1.3c-0.2,0.8-0.5,1.2-0.8,1.2c-0.1,0-0.5-0.3-0.9-0.9c-0.5-0.6-0.9-0.8-1.4-0.8c-1,0-2.1,2.4-2.9,7.4
		c-0.5,2.2-0.8,3.7-1.4,4.6c-0.3,0.6-0.6,1-0.8,1c-0.2,0-0.3-0.3-0.3-0.8c0-0.9-0.5-2.6-1.5-5.1c-1-2.5-1.7-3.7-2.1-3.7
		c-0.3,0-0.5,0.1-0.6,0.3c-0.1,0.2-0.3,0.3-0.7,0.3c-0.4,0-1-0.3-1.7-1c-0.7-0.6-1-1.2-1-1.5c0-0.2,0.3-0.8,0.9-1.8
		C189.4,25.1,189.8,24.7,189.9,24.7"/>
	<path class="st10" d="M73.1,129.3c13.1-4.8,26.7-9.9,40.8-15.1c0.6-0.2,0.9-0.3,1-0.2c0.1,0.1,0.1,0.3-0.1,0.8
		c-0.7,1.5-1.2,2.5-1.5,2.7c-11.9,4.4-25.9,9.9-41.9,16.4C71.7,132.5,72.3,131,73.1,129.3"/>
	<path class="st10" d="M182.5,211.9c17-6.3,34.7-12.8,53.1-19.7c0.8-0.2,1.2-0.3,1.3-0.2c0.1,0.1,0.1,0.4-0.1,1.1
		c-0.9,2-1.5,3.2-2,3.5c-15.5,5.7-33.7,12.8-54.6,21.3C180.7,216.1,181.5,214.1,182.5,211.9"/>
	<path class="st10" d="M114.5,32.3c13-4.8,26.6-9.8,40.7-15.1c0.6-0.2,0.9-0.3,1-0.2c0.1,0.1,0.1,0.3-0.1,0.8
		c-0.7,1.5-1.2,2.5-1.5,2.7c-11.9,4.4-25.8,9.8-41.8,16.3C113.2,35.5,113.8,34,114.5,32.3"/>
	<path class="st10" d="M96.5,49.3c2.5,0,5.3-0.4,8.1-1.3c0.8-0.3,1.3-0.3,1.3-0.2c0,0.1-0.3,0.4-0.9,0.9c-2.6,2.3-5.8,3.4-9.8,3.4
		c-1.3,0-2.3-0.4-3.1-1c-0.8-0.6-1.1-1.5-1.1-2.4c0-2.7,1.1-5.4,3.4-8.3c-2-0.6-3-1.6-3-3.1c0-1.3,0.8-2.8,2.4-4.6
		c1.6-1.8,2.9-2.6,3.9-2.6c0.3,0,0.5,0.2,0.8,0.6c0.3,0.4,0.4,0.9,0.4,1.3c0,0.3-0.3,0.7-0.8,1.5c-0.6,0.8-0.8,1.1-0.9,0.9
		c-0.2-0.8-0.7-1.2-1.4-1.2c-0.3,0-0.8,0.3-1.3,0.9c-0.5,0.6-0.8,1.2-0.8,1.6c0.6,1.1,1.7,1.6,3.3,1.6c0.5,0,1.3-0.5,2.4-1.4
		c0.6-0.6,1.3-1.2,1.9-1.8c0.3-0.1,0.4,0,0.4,0.6c0,1.2-0.4,2.4-1.3,3.6c-3.3,2.3-5.8,4.9-7.4,7.8c-0.3,0.6-0.4,1.1-0.4,1.4
		C92.3,48.6,93.7,49.3,96.5,49.3"/>
	<path class="st10" d="M124.2,159.2c1.3-1.2,3.3-2.5,6.1-3.8c2.1-1,3.7-2.3,4.8-3.9c2.1-3.1,1.9-7.6-0.5-13.4
		c-0.2-0.4,0-0.7,0.4-0.8l2.6-0.7c0.3-0.1,0.4,0.1,0.7,0.4c2.7,5.2,2.6,10.1-0.3,14.5c-1.4,2.1-3.7,3.8-6.7,5.3
		c-3,1.5-4.8,2.6-5.4,3.5c-1.2,1.8-1.1,3.3,0.3,4.2c0.9,0.6,2.3,0.6,4.4-0.1c0.2,0,0.4-0.1,0.5-0.1c0.1,0,0.2,0.1,0.2,0.1
		c0,0.1,0,0.2-0.2,0.3c-3.1,2.6-5.7,3.3-7.7,1.9c-2-1.4-2.2-3.4-0.4-6.1C123.2,160.2,123.6,159.7,124.2,159.2"/>
	<path class="st10" d="M240.7,49c-0.3-2.1-0.9-4.7-1.9-7.8c-0.8-2.3-1.1-4.7-1.1-7c0-4.5,1.7-8.8,5.1-13c0.3-0.3,0.3-0.6,0.1-1
		l-1.1-2.5c-0.1-0.2-0.3-0.2-0.5,0c-3.4,3.4-5.1,8.3-5.1,14.6c0,3.1,0.6,6.3,1.7,9.7c1.1,3.4,1.7,5.8,1.7,7.1c0,2.7-0.6,4-1.7,4
		c-0.7,0-1.5-1-2.3-3.1c-0.1-0.2-0.2-0.3-0.3-0.4c-0.1-0.1-0.1-0.1-0.1,0c-0.1,0.1-0.1,0.2,0,0.5c0.7,4.7,1.8,7,3.4,7
		c1.6,0,2.4-2,2.4-5.8C240.9,50.7,240.8,49.9,240.7,49"/>
	<path class="st10" d="M229.2,25.9c-1.4,3.4-2.1,6.1-2.1,8.2c0,2.4,0.6,3.6,1.9,3.6c0.8,0,1.6-0.9,2.6-2.8c0.1-0.2,0.2-0.3,0.3-0.4
		c0.1,0,0.1,0,0.1,0.1s0,0.2,0,0.4c-0.8,4.3-2.1,6.4-3.9,6.4c-1.9,0-2.8-1.6-2.8-4.7c0-1.5,0.4-3.6,1.2-6.1c0.9-2.6,1.3-3.9,1.3-3.9
		c0-0.4-0.6-0.9-1.9-1.6c-1.5,2.1-3.4,4-5.8,5.7c-2.6,2-5,3.4-7.2,4.4c-0.5,0.2-3.1,1.2-7.7,2.9c-0.7,0.2-1.2,0.4-1.4,0.4
		c-0.1,0-0.1,0-0.1-0.1c0-0.1,0.4-0.5,1.2-1.1c3.4-2,6.9-4.1,10.3-6.1c4.1-2.5,7.2-4.8,9.3-6.9c-2.7-1.4-4.1-2.9-4.1-4.4
		c0-1.9,0.9-3.6,2.6-5.1c1.7-1.5,3.1-2.1,4.3-1.6c0.9,0.4,1.4,1.4,1.4,3.1c0,1.6-0.4,3.3-1,5.2c1.4,0.8,2.1,1.6,2.1,2.5
		C229.8,24.4,229.6,25.1,229.2,25.9 M226.1,20.6c0.3-0.9,0.3-1.7,0.1-2.6c-0.1-0.9-0.6-1.4-1.2-1.4c-0.4,0-0.8,0.1-1.4,0.4
		c-0.5,0.4-0.8,0.6-0.8,0.9C222.9,18.7,224,19.5,226.1,20.6"/>
	<path class="st10" d="M111.7,13.2c-1.1,2.4-1.6,3.8-2.1,4c-7.7,2.7-17,6.4-27.9,10.8c-3.3,1.8-4.9,3.1-4.9,4.1
		c0,0.9,2.2,2.1,6.9,3.7c0.5,0.2,0.7,1.2,0.7,2.8c0,1.5-0.1,2.4-0.2,2.7c-0.1,0.2-0.7,0.2-1.6,0.1c-5.8-1.2-8.6-3.2-8.6-6.1
		c0-1.8,0.7-3.9,2.4-6.6c1.6-2.6,3.3-4.5,5.1-5.5c1.5-1.1,6.7-3.1,15.3-6.1c4.6-1.6,9.2-3.3,13.8-4.8c0.9-0.4,1.4-0.5,1.5-0.4
		C112.1,12,112,12.5,111.7,13.2"/>
	<path class="st10" d="M205.6,14.9c-1.5,1.7-2.4,2.8-2.9,2.8c-7.3,0.2-16.2,0.8-26.7,1.6c-3.3,0.6-5.1,1.3-5.3,2.2
		c-0.3,0.8,1.3,2.4,4.9,5c0.3,0.3,0.3,1.2-0.2,2.6c-0.4,1.3-0.7,2-0.9,2.2c-0.2,0.2-0.7,0-1.4-0.4c-4.6-2.6-6.4-5.1-5.6-7.6
		c0.5-1.5,1.7-3.1,3.8-5c2.1-1.8,4-2.9,5.8-3.3c1.6-0.5,6.6-0.8,14.7-1c4.4-0.1,8.7-0.3,13.1-0.3c0.9,0,1.3,0,1.4,0.1
		C206.3,14,206,14.4,205.6,14.9"/>
	<path class="st10" d="M94.6,107.7c0.2-0.5,0.4-0.4,0.4,0.2c-0.2,2-0.7,3.6-1.6,5.3c-0.9,1.6-1.8,2.4-2.9,2.4
		c-1.3,0.2-2-0.4-2.5-1.6c-0.7-1.3-0.9-2.9-0.7-4.9c0-1.3,0.2-2.9,0.7-4.7c0.4-1.6,0.9-3.3,1.5-4.9c0.5-1.6,1.3-3.1,1.8-4.4
		c0.5-1.3,1.1-2.2,1.5-2.5c0.5-0.7,0.9-1.3,1.1-1.5c0.2,0,0,0.4-0.5,1.5c-0.7,1.5-1.5,3.5-2.2,5.6c-0.7,2.2-1.3,4.5-1.8,7.3
		c0,1.6,0,3.1,0.5,4.2c0.4,1.3,0.9,1.8,1.8,1.6c0.5-0.2,1.3-0.5,1.8-1.3C93.9,109,94.3,108.5,94.6,107.7"/>
	<path class="st10" d="M124.7,53.7c0.2-0.5,0.3-0.3,0.3,0.2c-0.2,1.7-0.6,3.2-1.4,4.6c-0.8,1.4-1.6,2.1-2.5,2.1
		c-1.1,0.2-1.7-0.3-2.2-1.4c-0.6-1.1-0.8-2.5-0.6-4.3c0-1.1,0.2-2.5,0.6-4.1c0.3-1.4,0.8-2.9,1.3-4.3c0.5-1.4,1.1-2.7,1.6-3.8
		c0.5-1.1,1-1.9,1.3-2.2c0.5-0.6,0.8-1.1,1-1.3c0.2,0,0,0.3-0.5,1.3c-0.6,1.3-1.3,3-1.9,4.9c-0.6,1.9-1.1,4-1.6,6.4
		c0,1.4,0,2.7,0.5,3.7c0.3,1.1,0.8,1.6,1.6,1.4c0.5-0.2,1.1-0.5,1.6-1.1C124,54.9,124.4,54.4,124.7,53.7"/>
	<path class="st10" d="M76.6,61.7c0.2-0.6,0.4-0.4,0.4,0.2c-0.2,2.3-0.8,4.1-1.8,5.9c-1,1.8-2,2.7-3.3,2.7c-1.4,0.2-2.3-0.4-2.9-1.8
		c-0.8-1.4-1-3.3-0.8-5.5c0-1.4,0.2-3.3,0.8-5.3c0.4-1.8,1-3.7,1.6-5.5c0.6-1.8,1.4-3.5,2-4.9c0.6-1.4,1.2-2.5,1.6-2.9
		c0.6-0.8,1-1.4,1.2-1.6c0.2,0,0,0.4-0.6,1.6c-0.8,1.6-1.6,3.9-2.5,6.4c-0.8,2.5-1.4,5.1-2,8.2c0,1.8,0,3.5,0.6,4.7
		c0.4,1.4,1,2,2,1.8c0.6-0.2,1.4-0.6,2-1.4C75.8,63.2,76.2,62.6,76.6,61.7"/>
	<path class="st10" d="M211.9,42c0.6,0,1.6,0.4,2.8,1.4c1.2,0.9,1.8,1.7,1.9,2.4c0,0.2-0.1,0.6-0.4,1.4c-0.4,0.7-0.6,1.1-0.7,1.1
		c-1.1,0.3-2.2,0.6-3.2,0.9c-1.3,0.4-2.3,1-2.8,1.6c1.5,4.5,2.2,8.9,2.2,13.4c0,1.3-0.2,2.6-0.4,3.9c-0.1,0.5-0.2,0.7-0.3,0.8
		c-0.1,0-0.2-0.8-0.2-2.3c0-2.5-0.4-5.6-1.1-9.2c-0.8-3.6-1.1-5.7-1.1-6.1c0-1.8,0.5-3.1,1.5-3.9c0.5-0.4,1.3-0.8,2.7-1.2
		c-0.5-0.5-1.1-0.8-1.6-0.8c-0.2,0-0.6,0.3-1,0.9c-0.4,0.6-0.7,0.9-0.8,0.9c-0.1,0-0.2-0.2-0.1-0.7C209.7,43.4,210.6,42,211.9,42"/>
	<path class="st10" d="M143,64.6c-2.5-2.5-4.8-5-6.8-7.5s-3.2-4.9-3.4-7.2l-4.9,20.5c5.4,4.6,9.7,7.9,12.7,10.1h-29.2v13.2h24.8
		c2-3.1,3.6-5.8,4.9-8.2c1.3-2.4,2.4-4.8,3.4-7.4c1-2.6,1.5-4.8,1.5-6.8C145.9,68.9,144.9,66.6,143,64.6z"/>
	<path class="st10" d="M220.8,153c-2.3-2.9-3.5-5.6-3.7-8.3l-5.4,23.7c6,5.3,10.7,9.2,14,11.7h-32.3v15.3h27.4
		c2.2-3.6,3.9-6.7,5.4-9.5c1.4-2.7,2.7-5.6,3.8-8.5c1.1-3,1.6-5.6,1.6-7.9c0-2.9-1.1-5.5-3.2-7.9C225.6,158.8,223,155.9,220.8,153z"
		/>
	<path class="st16" d="M205.4,146.5c-1.1-0.8-2.1-1.6-2.9-2.3c-1-0.7-2-1.3-2.9-1.8c-1-0.7-2-1.3-2.9-2c-1.1-0.7-2.3-1.3-3.6-2.1
		c0,0,0.2-0.7,0.8-2.1c0.7-1.5,1.3-2.9,2.1-4.6c0.7-1.6,1.5-3.3,2.1-4.6c0.7-1.3,1-2,1.1-2c2.1,0.8,4.4,2,6.7,3.3s4.4,2.6,6.3,3.9
		c1-2,2-3.7,2.6-5.5c0.8-1.3,1.5-2.6,2-3.9c0.7-1.3,1-2.1,1.1-2.4c0.8,0.3,2,1,3.6,1.8c1.5,0.8,2.9,1.8,4.6,2.6
		c1.5,1,2.8,1.8,3.7,2.8c1.1,0.8,1.6,1.5,1.6,1.8c-0.2,0.8-0.5,1.8-0.8,2.9c-0.3,1.1-0.8,2.3-1.3,3.6c-0.5,1.3-1.1,2.4-1.8,3.7
		c-0.7,1.1-1.3,2.3-2,3.1c0,0-0.8-0.3-2.3-1.1c-1.3-0.8-2.8-1.6-4.4-2.6c-1.6-0.8-3.3-1.8-4.6-2.4c-1.3-0.8-2.1-1.3-2.1-1.3
		c-0.2,0.2-0.7,0.8-1.3,2c-0.7,1.1-1.3,2.3-2.1,3.6c-0.8,1.5-1.5,2.6-2.1,3.7C206,145.7,205.6,146.3,205.4,146.5"/>
	<path class="st16" d="M178.2,66c-1-1-1.8-2-2.5-2.8c-0.8-0.8-1.7-1.6-2.6-2.3c-0.8-0.8-1.7-1.6-2.5-2.4c-1-0.8-2-1.7-3.1-2.7
		c0,0,0.3-0.6,1.2-1.9c0.9-1.3,1.8-2.6,2.9-4.1c0.9-1.5,2-2.9,2.9-4.1c0.9-1.2,1.3-1.7,1.5-1.7c1.9,1.2,4,2.7,6,4.4
		c2,1.7,3.9,3.3,5.5,5c1.3-1.7,2.6-3.3,3.5-5c1-1.1,1.9-2.3,2.6-3.5c0.9-1.2,1.3-1.9,1.6-2.2c0.7,0.5,1.7,1.3,3.2,2.4
		c1.3,1.1,2.6,2.3,4,3.4c1.3,1.2,2.4,2.3,3.2,3.4c1,1,1.3,1.7,1.3,2.1c-0.3,0.8-0.8,1.7-1.3,2.7c-0.5,1.1-1.2,2.1-1.9,3.3
		c-0.7,1.2-1.6,2.2-2.4,3.4c-0.8,1-1.7,2-2.5,2.7c0,0-0.7-0.5-2-1.5c-1.1-1-2.4-2.1-3.9-3.3c-1.5-1.1-2.9-2.3-4-3.2
		c-1.1-1-1.8-1.7-1.8-1.7c-0.2,0.1-0.8,0.7-1.6,1.7c-0.8,1-1.7,2-2.7,3.1c-1.1,1.3-1.9,2.3-2.7,3.3S178.4,65.9,178.2,66"/>
	<path class="st16" d="M29.2,146c-1-1-1.8-2-2.5-2.8c-0.8-0.8-1.7-1.6-2.6-2.3c-0.8-0.8-1.7-1.6-2.5-2.4c-1-0.8-2-1.7-3.1-2.7
		c0,0,0.3-0.6,1.2-1.9c0.9-1.3,1.8-2.6,2.9-4.1c0.9-1.5,2-2.9,2.9-4.1c0.9-1.2,1.3-1.7,1.5-1.7c1.9,1.2,4,2.7,6,4.4
		c2,1.7,3.9,3.3,5.5,5c1.3-1.7,2.6-3.3,3.5-5c1-1.1,1.9-2.3,2.6-3.5c0.9-1.2,1.3-1.9,1.6-2.2c0.7,0.5,1.7,1.3,3.2,2.4
		c1.3,1.1,2.6,2.3,4,3.4c1.3,1.2,2.4,2.3,3.2,3.4c1,1,1.3,1.7,1.3,2.1c-0.3,0.8-0.8,1.7-1.3,2.7c-0.5,1.1-1.2,2.1-1.9,3.3
		c-0.7,1.2-1.6,2.2-2.4,3.4c-0.8,1-1.7,2-2.5,2.7c0,0-0.7-0.5-2-1.5c-1.1-1-2.4-2.1-3.9-3.3c-1.5-1.1-2.9-2.3-4-3.2
		c-1.1-1-1.8-1.7-1.8-1.7c-0.2,0.1-0.8,0.7-1.6,1.7c-0.8,1-1.7,2-2.7,3.1c-1.1,1.3-1.9,2.3-2.7,3.3C30,145.4,29.4,145.9,29.2,146"/>
	<path class="st16" d="M35.6,46.8c-0.8-0.9-1.6-1.7-2.2-2.4c-0.7-0.7-1.5-1.4-2.2-2c-0.7-0.7-1.5-1.4-2.2-2.1
		c-0.9-0.7-1.7-1.5-2.7-2.4c0,0,0.2-0.5,1-1.7c0.8-1.2,1.6-2.3,2.5-3.6c0.8-1.3,1.8-2.6,2.5-3.6c0.8-1,1.1-1.5,1.3-1.5
		c1.7,1,3.5,2.4,5.2,3.8c1.7,1.5,3.4,2.9,4.8,4.3c1.1-1.5,2.3-2.9,3.1-4.3c0.9-1,1.7-2,2.3-3c0.8-1,1.2-1.7,1.4-1.9
		c0.6,0.4,1.5,1.1,2.8,2.1c1.1,0.9,2.2,2,3.5,2.9c1.1,1.1,2.1,2,2.8,2.9c0.8,0.9,1.2,1.5,1.1,1.8c-0.3,0.7-0.7,1.5-1.2,2.4
		c-0.5,0.9-1,1.8-1.7,2.9c-0.6,1-1.4,1.9-2.1,2.9c-0.7,0.9-1.5,1.7-2.1,2.3c0,0-0.6-0.4-1.8-1.3c-1-0.9-2.1-1.8-3.4-2.9
		c-1.3-0.9-2.5-2-3.5-2.8c-1-0.9-1.6-1.4-1.6-1.4c-0.2,0.1-0.7,0.6-1.4,1.5c-0.7,0.9-1.5,1.7-2.4,2.7c-0.9,1.1-1.7,2-2.4,2.9
		S35.8,46.6,35.6,46.8"/>
	<path class="st10" d="M233.1,139.2"/>
	<path class="st16" d="M121.8,103.7c-1-1-2.4-1.8-3.9-2.9c-1.7-0.8-3.2-1.8-4.7-2.7c-1.7-0.8-2.9-1.5-3.7-1.8l-6.5,14.6
		c0.4,0.2,0.8,0.5,1.3,0.7c0.9,0.5,1.8,1,2.7,1.5c0.8,0.4,1.5,0.9,2.3,1.3c0.1,0.1,0.2,0.1,0.3,0.2c7.5-3.3,8.5-1.7,8.5-1.7
		l-3.2,4.8l2.6,1.5c0.7-0.8,1.3-2,2-3.2c0.7-1.3,1.3-2.5,1.8-3.9c0.5-1.3,1-2.5,1.3-3.7c0.3-1.2,0.7-2.2,0.8-3
		C123.5,105.2,123,104.5,121.8,103.7z"/>
	<path class="st10" d="M193.7,106.2c2.4,1.8,3.5,3.5,3.3,5.2c-0.2,1.9-0.4,3-0.8,3.5c-1,1.4-2.3,2.1-3.9,2.1c-1.5,0-2.2-0.9-2.2-2.7
		c0-0.4,0.1-0.8,0.1-1.3c0.3-1.5,1-3.6,2.1-6.4c1-2.4,1.5-4.3,1.5-5.9c0-3.2-1.5-6.2-4.5-9.2c-0.2-0.2-0.2-0.4-0.1-0.7l1-1.8
		c0.1-0.2,0.2-0.2,0.4,0c2.9,2.4,4.4,5.8,4.4,10.3C195.3,101.4,194.7,103.8,193.7,106.2 M196,112.2c0-0.7-1.2-1.6-3.5-2.9
		c-0.7,1.4-1,2.6-1,3.7c0,0.7,0.3,1,0.9,1c0.6,0,1.3-0.2,2-0.6C195.2,113,195.7,112.6,196,112.2"/>
	<path class="st10" d="M236.5,128.9c-0.1,0.6-0.1,1.2-0.1,1.7c0,0.6,0,1.1,0,1.6c0,0.5,0,1,0.1,1.5c0,0.5,0.1,0.9,0.2,1.3
		c0.1,0.8,0.3,1.6,0.4,2.2c0.1,0.3,0.1,0.6,0.2,0.8c0.1,0.2,0.1,0.4,0.2,0.6c0.1,0.3,0.1,0.5,0.1,0.5s0-0.2-0.1-0.5
		c0-0.2-0.1-0.4-0.1-0.6c0-0.2-0.1-0.5-0.1-0.8c-0.1-0.6-0.2-1.3-0.2-2.2c0-0.4-0.1-0.9-0.1-1.3c0-0.5,0-1,0-1.5c0-0.5,0-1,0.1-1.6
		c0-0.5,0.1-1.1,0.2-1.7c0.1-0.6,0.2-1.2,0.3-1.8c0.1-0.6,0.3-1.2,0.4-1.8c0,0,0-0.1,0-0.1c0,0,0-0.1,0.1-0.1c0,0,0,0.1-0.1,0.1
		c0.3-1.2,0.7-2.4,1.1-3.7c0.4-1.3,0.8-2.6,1.1-4c0.3-1.4,0.5-2.8,0.4-4.2c0-0.7-0.1-1.4-0.3-2.1c-0.2-0.7-0.4-1.3-0.7-1.9
		c-0.3-0.6-0.8-1.1-1.3-1.6c-0.3-0.2-0.5-0.4-0.8-0.6c-0.3-0.2-0.6-0.3-0.8-0.4c-0.1-0.1-0.3-0.1-0.4-0.2c-0.1,0-0.3-0.1-0.4-0.1
		c-0.3-0.1-0.6-0.1-0.9-0.1c-0.6,0-1.2,0.1-1.7,0.3c-1,0.4-1.8,1.1-2.3,1.8c-0.2,0.4-0.4,0.7-0.5,1.1c-0.1,0.4-0.2,0.7-0.2,1
		c-0.1,0.6,0,1.1,0,1.4c0,0.2,0,0.3,0.1,0.4c0,0.1,0,0.1,0,0.1s0,0,0-0.1c0-0.1,0-0.2,0-0.4c0-0.3,0-0.8,0.1-1.4
		c0.1-0.6,0.3-1.3,0.8-1.9c0.2-0.3,0.5-0.6,0.9-0.9c0.4-0.3,0.8-0.5,1.3-0.6c0.5-0.1,1-0.2,1.5-0.2c0.3,0,0.5,0.1,0.8,0.1
		c0.1,0,0.3,0.1,0.4,0.1c0.1,0.1,0.3,0.1,0.4,0.2c0.3,0.1,0.5,0.3,0.7,0.4c0.2,0.2,0.5,0.3,0.7,0.5c0.4,0.4,0.8,0.9,1.1,1.4
		c0.6,1.1,0.8,2.4,0.8,3.7c0,1.3-0.2,2.7-0.4,4c-0.3,1.3-0.6,2.6-1.1,3.9c-0.1,0.3-0.2,0.6-0.3,1c-0.1,0.3-0.2,0.6-0.3,1
		c-0.2,0.6-0.4,1.3-0.5,1.9c-0.2,0.6-0.3,1.3-0.4,1.9c0,0.1,0,0.3-0.1,0.4C236.7,127.5,236.5,128.5,236.5,128.9z"/>
	<path class="st10" d="M238.9,139c0-0.2-0.1-0.4-0.1-0.6c0-0.2-0.1-0.5-0.1-0.8c-0.1-0.6-0.2-1.3-0.2-2.2c0-0.4-0.1-0.9-0.1-1.3
		c0-0.5,0-1,0-1.5c0-0.5,0-1,0.1-1.6c0-0.5,0.1-1.1,0.2-1.7c0.1-0.6,0.2-1.2,0.3-1.8c0.1-0.6,0.3-1.2,0.4-1.8c0,0,0-0.1,0-0.1
		c0,0,0-0.1,0.1-0.1c0,0,0,0,0,0.1c0.2-0.7,0.4-1.4,0.6-2.1c0.3-1.1,0.7-2.1,1.1-3.2c0.4-1.1,0.7-2.2,0.9-3.4
		c0.1-0.4,0.2-0.9,0.2-1.3c0-0.2,0-0.4,0.1-0.6c0,0,0-0.1,0-0.1l0,0c0,0,0.1-1.7,0-2.3c0,0,0-0.1,0-0.1c0-0.2,0-0.4-0.1-0.6
		c-0.1-0.5-0.2-1-0.3-1.5c-0.3-1-0.7-1.9-1.2-2.6c-0.5-0.7-1.1-1.3-1.7-1.7c-0.6-0.4-1.2-0.6-1.7-0.8c-0.5-0.2-0.9-0.2-1.1-0.3
		c-0.1,0-0.2,0-0.3,0c-0.1,0-0.1,0-0.1,0s0.1,0,0.4,0.1c0.3,0.1,0.6,0.2,1.1,0.4c0.2,0.1,0.5,0.2,0.7,0.4c0.3,0.1,0.5,0.3,0.8,0.5
		c0.5,0.4,1.1,1,1.5,1.7c0.4,0.7,0.7,1.6,0.9,2.5c0.2,0.9,0.3,1.8,0.3,2.7c0,0,0,0.1,0,0.1c0,0.1,0,0.1,0,0.2l0,0.2l0,0.1l0,0.1l0,0
		l0,0c0,0.7-0.2,1.8-0.2,1.9c0,0.3-0.1,0.6-0.2,0.9c-0.2,1.1-0.6,2.2-0.9,3.3c-0.3,1-0.7,2-1,3l0,0c-0.1,0.2-0.1,0.4-0.2,0.7
		c-0.2,0.6-0.4,1.3-0.5,1.9c-0.2,0.6-0.3,1.3-0.4,1.9c0,0.1,0,0.3-0.1,0.4c0,0-0.2,1.1-0.2,1.4c-0.1,0.6-0.1,1.2-0.1,1.7
		c0,0.6,0,1.1,0,1.6c0,0.5,0,1,0.1,1.5c0,0.5,0.1,0.9,0.2,1.3c0.1,0.8,0.3,1.6,0.4,2.2c0.1,0.3,0.1,0.6,0.2,0.8
		C238.7,138.6,238.8,138.8,238.9,139c0,0.3,0.1,0.5,0.1,0.5S239,139.3,238.9,139z M239.4,125.6L239.4,125.6
		C239.4,125.6,239.4,125.6,239.4,125.6C239.4,125.6,239.4,125.6,239.4,125.6z"/>
	<path class="st10" d="M198.9,172.8c-1.7-0.4-2.5-1.2-3.1-2.3c-0.4-1.2-0.6-2.7-0.4-4.2c0-1.5,0.4-3.1,1-4.8
		c0.8-1.7,1.5-3.1,2.3-4.6c0.6-1.2,1.5-2.5,2.1-3.3c0.6-0.8,1.2-1.2,1.5-1c0.2,0,0.2,0.2,0.2,0.2c-0.2,0-0.2,0.2-0.2,0.2
		c-2.1,3.3-3.1,6-3.3,8.1s0,3.5,0.8,4.4c0.8,1,1.9,1.5,3.3,1.5c1.2-0.2,2.5-0.6,3.5-1.5c0.4-0.4,0.6-0.2,0.2,0.6
		c-0.4,0.6-0.8,1.5-1.2,2.3c-0.6,1-1.2,1.9-1.9,2.5c-0.8,0.8-1.7,1.2-2.5,1.7C200.3,173,199.5,173.2,198.9,172.8"/>
	<path class="st10" d="M153.7,120.4c-0.4,1.1-0.7,1.6-1,1.6c-0.4,0-0.4-0.8-0.2-2.1c0.2-1.2,0.4-2.7,0.4-4.7
		c0-6.2-2.9-12.3-8.7-18.5c-0.4-0.3-0.4-0.9-0.1-1.4l1.6-3.5c0.2-0.3,0.4-0.3,0.7,0c5.6,5,8.5,12,8.5,20.8
		C155,115.4,154.6,118,153.7,120.4"/>
	<path class="st10" d="M135.9,114.1c0.2-0.2,0.5-0.4,0.9-0.6c0.3-0.1,0.7-0.2,1.1-0.2c0.5,0,1,0.1,1.4,0.3c0.4,0.2,0.8,0.5,1.1,0.8
		c0.4,0.4,0.7,0.8,0.9,1.3c0.2,0.5,0.4,1,0.5,1.5c0.1,0.5,0.2,1,0.2,1.4c0,0.5,0,1,0,1.5c0,0.3,0,0.5-0.1,0.8c0,0.3-0.1,0.5-0.2,0.8
		c-0.1-0.1-0.2-0.3-0.2-0.4c0-0.2,0-0.3,0-0.5c0-0.6,0-1.2-0.2-1.8c-0.2-0.6-0.4-1.1-0.9-1.6c-0.2-0.2-0.4-0.4-0.6-0.5
		c-0.2-0.2-0.4-0.3-0.7-0.4c-0.2-0.1-0.5-0.2-0.8-0.3c-0.3-0.1-0.5-0.1-0.8,0c-0.4,0-0.7,0.1-1.1,0.2c-0.4,0.1-0.7,0.3-1,0.5
		c-0.1,0-0.1,0.1-0.1,0.2c0,0.1,0,0.2,0.1,0.2c0.2,0.3,0.4,0.6,0.6,0.9c0.2,0.3,0.4,0.6,0.7,0.8c0.2,0.3,0.4,0.6,0.6,0.9
		c0.2,0.3,0.4,0.6,0.5,0.9c0.2,0.4,0.3,0.9,0.4,1.4c0.1,0.5,0.1,0.9,0.2,1.4c0,0.4,0,0.8,0,1.3c0,0.4-0.1,0.8-0.2,1.3
		c-0.1,0.2-0.2,0.5-0.4,0.7c-0.2,0.2-0.4,0.3-0.7,0.4c-0.3,0.1-0.5,0.1-0.8,0c-0.3-0.1-0.5-0.2-0.7-0.3c-0.2-0.1-0.3-0.2-0.4-0.4
		c-0.1-0.1-0.2-0.3-0.4-0.4c0,0.3,0.1,0.7,0.2,1c0.1,0.3,0.1,0.6,0.1,1c0,0.4,0,0.8,0,1.2c0,0.4-0.1,0.8-0.2,1.2
		c-0.1,0.3-0.2,0.6-0.4,0.8c-0.2,0.3-0.4,0.5-0.7,0.6c-0.2,0.1-0.4,0.2-0.7,0.2c-0.3,0-0.5,0-0.7-0.1c-0.3-0.1-0.6-0.3-0.8-0.5
		c-0.3-0.2-0.5-0.5-0.6-0.8c-0.1-0.3-0.2-0.6-0.3-0.9c-0.1-0.3-0.2-0.6-0.3-0.9c0-0.1,0-0.2-0.1-0.4c0-0.1-0.1-0.2-0.1-0.3
		c0-0.1-0.1-0.2-0.1-0.2c-0.1,0-0.1-0.1-0.2-0.1c-0.1,0-0.2,0-0.3,0c-0.1,0-0.2,0.1-0.2,0.1c-0.4,0.3-0.8,0.7-1.1,1.1
		c-0.3,0.4-0.5,0.9-0.8,1.3c-0.2,0.5-0.4,1-0.6,1.4c-0.2,0.5-0.3,1-0.4,1.5c-0.1,0.5-0.2,1.1-0.2,1.6c-0.1,0.5-0.1,1.1-0.1,1.6
		c0,0.3-0.1,0.7-0.1,1.3c-0.1,0.5-0.1,1.1-0.2,1.7c-0.1,0.6-0.2,1.2-0.3,1.9c-0.1,0.6-0.3,1.2-0.5,1.8c-0.2,0.5-0.5,1-0.7,1.4
		c-0.3,0.4-0.6,0.7-1,0.8c-0.3,0.1-0.5,0.1-0.8,0c-0.3-0.1-0.6-0.2-0.8-0.3c-0.3-0.2-0.6-0.4-0.8-0.7c-0.2-0.3-0.4-0.6-0.6-0.8
		c-0.2-0.3-0.3-0.5-0.4-0.8c-0.1-0.3-0.2-0.5-0.3-0.8c-0.3-1-0.4-1.9-0.4-2.9c0-1,0.2-2,0.4-2.9c0.1-0.6,0.3-1.1,0.5-1.7
		c0.2-0.5,0.5-1.1,0.8-1.6c0.3-0.6,0.7-1.2,1.1-1.8c0.4-0.6,0.8-1.2,1.3-1.8c0.3-0.4,0.6-0.8,0.9-1.2c0.3-0.4,0.6-0.8,0.9-1.2
		c0.4-0.5,0.8-1.1,1.1-1.7c0.3-0.6,0.6-1.2,0.9-1.8c0.1-0.2,0.1-0.3,0.2-0.5c0.1-0.2,0.1-0.4,0.3-0.5c0,0.3,0,0.5-0.1,0.8
		c-0.1,0.2-0.1,0.5-0.2,0.7c-0.1,0.6-0.3,1.2-0.5,1.7c-0.2,0.6-0.5,1.1-0.7,1.6c-0.4,0.7-0.8,1.3-1.2,1.9c-0.4,0.6-0.9,1.2-1.3,1.8
		c-0.5,0.7-1,1.3-1.4,2c-0.4,0.7-0.9,1.4-1.3,2.1c-0.3,0.5-0.5,1-0.7,1.5c-0.1,0.5-0.3,1.1-0.4,1.6c-0.2,0.7-0.2,1.4-0.1,2.2
		c0.1,0.3,0.2,0.6,0.3,0.9c0.2,0.3,0.4,0.5,0.6,0.8c0.2,0.2,0.5,0.4,0.8,0.5c0.3,0.1,0.6,0.2,0.9,0.2c0.3,0,0.5-0.1,0.7-0.2
		c0.2-0.1,0.4-0.3,0.5-0.5c0.2-0.3,0.4-0.6,0.5-1c0.1-0.3,0.3-0.7,0.4-1.1c0.1-0.4,0.2-0.8,0.3-1.2c0.1-0.4,0.2-0.8,0.2-1.2
		c0.1-0.5,0.1-1,0.2-1.4c0.1-0.5,0.2-0.9,0.2-1.4c0.1-0.3,0.1-0.7,0.1-1c0-0.3,0.1-0.7,0.1-1c0.1-0.5,0.1-0.9,0.2-1.3
		c0-0.4,0.1-0.9,0.2-1.3c0.1-0.4,0.2-0.8,0.4-1.2c0.1-0.4,0.3-0.8,0.5-1.2c0.2-0.4,0.3-0.7,0.6-1c0.2-0.3,0.5-0.6,0.7-0.9
		c0.1-0.1,0.2-0.2,0.4-0.3c0.1-0.1,0.3-0.2,0.4-0.3c0.1-0.1,0.3-0.1,0.5-0.1c0.2,0,0.3,0.1,0.4,0.3c0.1,0.4,0.3,0.8,0.3,1.2
		c0.1,0.4,0.2,0.8,0.3,1.2c0.1,0.3,0.2,0.5,0.4,0.8c0.2,0.3,0.4,0.4,0.7,0.6c0.2,0.1,0.5,0.2,0.8,0.2c0.3,0,0.6-0.1,0.8-0.3
		c0.3-0.2,0.4-0.4,0.6-0.7c0.1-0.3,0.2-0.6,0.3-0.9c0.1-0.4,0.1-0.8,0-1.2c-0.1-0.4-0.2-0.8-0.3-1.2c-0.2-0.6-0.5-1.1-0.7-1.7
		c-0.2-0.6-0.4-1.1-0.7-1.7c-0.1-0.2-0.1-0.5-0.2-0.8c0-0.3-0.1-0.5-0.1-0.8c0-0.2,0-0.3-0.1-0.5c0-0.2,0-0.3,0-0.5
		c0.2,0.2,0.3,0.4,0.4,0.6c0.1,0.2,0.2,0.4,0.3,0.6c0.2,0.5,0.5,1,0.7,1.5c0.3,0.5,0.5,1,0.8,1.5c0.1,0.2,0.3,0.4,0.4,0.6
		c0.2,0.2,0.4,0.3,0.6,0.4c0.3,0.1,0.5,0.1,0.8,0.1c0.3,0,0.5-0.1,0.7-0.3c0.1-0.1,0.3-0.3,0.4-0.5c0.1-0.2,0.2-0.3,0.2-0.5
		c0-0.2-0.1-0.3-0.2-0.5c-0.1-0.2-0.2-0.3-0.3-0.5c-0.2-0.3-0.4-0.6-0.7-0.9c-0.2-0.3-0.4-0.6-0.7-0.9c-0.3-0.3-0.5-0.7-0.6-1
		c-0.2-0.4-0.3-0.8-0.3-1.1c0-0.4,0-0.8,0-1.2c0.1-0.4,0.1-0.8,0.3-1.2c0.1-0.3,0.2-0.5,0.3-0.8
		C135.5,114.6,135.7,114.3,135.9,114.1z"/>
	<path class="st10" d="M78.3,177.7c-0.4-0.6-0.8-1.1-1.3-1.4c-0.6-0.3-1-0.4-1.4-0.4c-0.4,0-0.6,0.1-0.9,0.5c-0.1,0.4,0,0.8,0.3,1.4
		c0.4,0.6,0.9,1.8,1.6,3.4c0.9,1.5,1.5,3.2,2.2,4.8c0.4,1.5,0.6,3,0.9,4.7c0.3,1.5,0.1,3-0.3,4.6c-0.3,0.5-0.5,0.9-1,1
		c-0.5,0.1-0.9-0.3-1.3-1c-0.3-0.5-0.4-1.1-0.6-1.8c-0.1-0.6-0.3-1.1-0.6-1.8c-0.3-0.6-0.6-1.1-1.1-1.6c-0.4-0.6-1-1.1-1.8-1.5
		c-0.1,0.1-0.4,0.3-0.5,0.4c-0.4,0.3-0.8,0.4-1,0.4c-1.4,0-2.4-0.5-3-1.4c-0.6-0.9-0.8-1.8-0.8-2.5c0.3-1.4,0.8-2,1.5-2.2
		c0.8-0.1,1.4-0.1,2,0.1c1,0.4,2,1,2.8,1.6c0.9,0.8,1.5,1.5,2.2,2.3c0.6,1,1.1,1.9,1.6,2.9c0-0.9-0.1-1.9-0.5-2.9
		c-0.4-0.9-0.9-1.9-1.4-2.8c-0.5-1-1-1.9-1.5-2.8c-0.5-0.8-1-1.6-1.3-2.3c-0.3-0.6-0.4-1.4-0.5-2.3c-0.1-0.9,0-1.9,0.1-2.7
		c0.3-0.9,0.5-1.6,1-2.3c0.4-0.6,1-0.9,1.8-1c1.4,0.1,2.4,0.6,3.3,1.9c0.9,1.1,1.3,2.7,1.1,4.3c0,0.5-0.1,0.8-0.6,0.8
		C79,178.1,78.6,178,78.3,177.7"/>
	<path class="st10" d="M27.7,100.3c-0.4-0.7-0.9-1.3-1.4-1.6c-0.7-0.3-1.1-0.4-1.6-0.4c-0.4,0-0.7,0.1-1,0.6c-0.1,0.4,0,0.9,0.3,1.6
		c0.4,0.7,1,2,1.9,3.9c1,1.7,1.7,3.6,2.4,5.4c0.4,1.7,0.7,3.4,1,5.3c0.3,1.7,0.1,3.4-0.3,5.2c-0.3,0.6-0.6,1-1.1,1.1
		c-0.6,0.1-1-0.3-1.4-1.1c-0.3-0.6-0.4-1.3-0.7-2c-0.1-0.7-0.3-1.3-0.7-2c-0.3-0.7-0.7-1.3-1.3-1.9c-0.4-0.7-1.1-1.3-2-1.7
		c-0.1,0.1-0.4,0.3-0.6,0.4c-0.4,0.3-0.9,0.4-1.1,0.4c-1.6,0-2.7-0.6-3.4-1.6c-0.7-1-0.9-2-0.9-2.9c0.3-1.6,0.9-2.3,1.7-2.4
		c0.9-0.1,1.6-0.1,2.3,0.1c1.1,0.4,2.3,1.1,3.2,1.9c1,0.9,1.7,1.7,2.4,2.6c0.7,1.1,1.3,2.1,1.9,3.3c0-1-0.1-2.1-0.6-3.3
		c-0.4-1-1-2.1-1.6-3.2c-0.6-1.1-1.1-2.1-1.7-3.2c-0.6-0.9-1.1-1.9-1.4-2.6c-0.3-0.7-0.4-1.6-0.6-2.6c-0.1-1,0-2.1,0.1-3
		c0.3-1,0.6-1.9,1.1-2.6c0.4-0.7,1.1-1,2-1.1c1.6,0.1,2.7,0.7,3.7,2.1c1,1.3,1.4,3,1.3,4.9c0,0.6-0.1,0.9-0.7,0.9
		C28.4,100.7,28,100.6,27.7,100.3"/>
	<path class="st10" d="M164.2,126c1,0,1.4,0.5,1.4,1.4c0,0.5-0.1,1-0.4,1.5c-0.2,0.4-0.6,1-1.3,1.8c-1,1.2-1.7,1.9-2,2.4
		c-0.5,0.7-0.9,1.1-1,1.1c0,0,0,0,0-0.1c0-0.1,0.1-0.3,0.2-0.7c0.4-0.9,1-1.9,1.8-2.8c0.5-0.5,1-1.1,1.5-1.6
		c-0.2-0.5-0.5-0.7-0.9-0.7c-0.3,0-0.7,0.1-1.1,0.3c-4.3,2.2-8.4,3.3-12.4,3.3c-2.2,0-4.2-0.5-6-1.4c0.2,0.8,0.2,1.8-0.2,3
		c-0.2,0.5-0.3,0.7-0.4,0.7c0,0-0.1-0.3-0.1-0.9c0-1-0.2-1.9-0.5-2.7c-0.1-0.1-0.6-0.9-1.6-2.4c0.2-1,0.4-1.6,0.7-1.6
		c0,0,0.3,0.2,0.8,0.6c0.6,0.5,1.2,0.9,1.8,1.2c1.8,1,3.8,1.5,5.9,1.5c2.2,0,4.4-0.3,6.5-1c1.2-0.4,2.7-1,4.4-1.8
		C162.9,126.3,163.8,126,164.2,126"/>
	<g>
		<path class="st10" d="M145.6,36.3c-0.6-1.1-1.2-2.2-1.9-3.2c-0.7-1-1.5-2-2.3-2.9c-0.6-0.7-1.3-1.4-2-2.2l-2.7,1.1
			c0.3,0.4,0.7,0.8,1.1,1.1c0.8,0.8,1.7,1.7,2.4,2.6c0.7,0.8,1.4,1.6,2.1,2.6c0.7,0.9,1.3,1.9,1.9,2.9c0.6,1,1,2,1.4,3.2
			c0.4,1.1,0.5,2.3,0.5,3.5c0,1.1-0.2,2.3-0.6,3.6c-0.1-1.3-0.4-2.5-0.9-3.5c-0.5-1-1.1-1.9-1.9-2.7c-0.8-0.8-1.6-1.5-2.5-2.1
			c-0.9-0.6-1.8-1.1-2.7-1.6c-0.3,0.4-0.5,0.9-0.7,1.5c-0.2,0.6-0.3,1.2-0.3,1.8c0,0.9,0.2,1.6,0.7,2.2c0.5,0.6,1.3,0.9,2.3,0.9
			c0.6,0,1.2-0.2,1.5-0.5c1,0.9,1.9,1.9,2.6,3c0.7,1.1,1.2,2.6,1.3,4.3c0.5-0.2,1-0.6,1.3-1.3c0.3-0.6,0.6-1.4,0.8-2.2
			c0.2-0.8,0.3-1.6,0.4-2.4c0.1-0.8,0.1-1.5,0.1-2.1c0-1.4-0.2-2.8-0.5-4C146.6,38.6,146.1,37.4,145.6,36.3z"/>
		<path class="st10" d="M150.1,12.9c-0.5-0.8-1.2-1.5-2-2s-1.7-1-2.7-1.2c-1-0.3-2-0.4-3.1-0.4c-2.8,0-5.1,1-6.7,3
			c-1.7,2-2.5,4.8-2.5,8.4c0,1.1,0.2,2.1,0.4,3.1l2.1-0.8c-0.2-0.3-0.3-0.6-0.5-0.9c-0.5-1.1-0.7-2.2-0.7-3.5c0-1.1,0.2-2.1,0.6-2.9
			c0.4-0.8,1-1.5,1.7-2c0.7-0.5,1.5-0.9,2.4-1.2c0.9-0.2,1.8-0.4,2.8-0.4c1,0,1.9,0.1,2.8,0.3c0.9,0.2,1.7,0.3,2.4,0.4
			c-0.1,0.1-0.2,0.2-0.2,0.2c0,0.1,0.2,0.2,0.6,0.3c0.4,0,0.6,0.1,0.6,0.1c0,0,0,0-0.1,0c-0.1,0-0.2,0-0.2,0.1c0,0,0.2,0.2,0.5,0.4
			c0.3,0.2,0.7,0.5,1.1,0.8c0.4,0.3,0.8,0.5,1.1,0.8c0.3,0.2,0.4,0.3,0.4,0.3c0,0,0.1,0,0.1,0c0,0,0,0,0.1,0
			C150.9,14.6,150.6,13.7,150.1,12.9z"/>
	</g>
	<path class="st10" d="M86.7,147c0,0.7-0.6,2-1.8,3.8c-0.4-0.6-1.2-1.3-2.6-2.1c-4.8,7.7-12.2,14-22.1,18.8c-1,0.5-1.8,0.8-2.1,0.8
		c-0.3,0-0.4-0.1-0.4-0.4c0-0.4,0.4-1,1.1-1.8c2-2.1,3.7-4.3,5.3-6.2c0-0.1,0-0.4,0-0.5c0-0.6-0.7-1.6-2.1-2.9
		c-1.5-1.3-2.1-2.9-2.1-4.7c0-1.7,0.7-3.4,2.3-5.1c1.5-1.5,2.9-2.3,4.3-2.3c3.2,0,4.8,1.7,4.8,5.1c0,3.9-2.6,8.7-7.8,14.1
		c2.4-1.5,5.5-3.9,9.2-7.2c4.1-3.6,6.9-6.5,8.3-8.7c-2.8-1.4-4.2-2.9-4.2-4.5c0-2,0.9-3.7,2.6-5.3c1.8-1.5,3.2-2.1,4.4-1.7
		c1,0.4,1.5,1.4,1.5,3.2c0,1.6-0.4,3.4-1,5.4C85.6,145.8,86.4,146.4,86.7,147 M69,151.7c0-2.3-1.4-3.4-4-3.4c-0.7,0-1.5,0.3-2.3,0.9
		c-0.7,0.6-1,1.2-1,1.6c0,0.7,0.3,1.3,1,2.1c1,1,1.5,1.7,1.8,2.1c0.7,1.2,0.7,2.7,0,4.6C67.4,156,69,153.4,69,151.7 M82.5,144.1
		c0.3-0.9,0.3-1.8,0.1-2.6c-0.1-1-0.6-1.5-1.2-1.5c-0.4,0-0.8,0.1-1.4,0.4c-0.5,0.4-0.8,0.7-0.8,1C79.2,142.1,80.3,143,82.5,144.1"
		/>
	<path class="st10" d="M197.5,79c-1.3-1-2.4-2.1-3.4-3.5s-1.7-2.7-2.3-3.9c-0.6-1.3-1-2.2-1.3-2.9c-0.3-0.6-0.5-0.8-0.6-0.8
		c-0.1,0-0.2,0.3-0.3,0.7c-0.1,0.5-0.2,1.1-0.3,1.8c-0.1,0.7-0.3,1.6-0.6,2.5c-0.3,0.9-0.7,1.8-1.2,2.7c-0.5,0.9-1.2,1.7-2,2.4
		c-0.8,0.7-1.9,1.4-3.2,1.8c-1.3,0.5-2.8,0.7-4.7,0.7h-9.7v13.2h8.2c3.5,0,6.2-0.6,8.2-1.9c2-1.2,3.5-2.8,4.4-4.8
		c0.9-1.9,1.5-4,1.7-6.2c0.2-2.2,0.3-4.2,0.2-6.2c0.3,1,0.6,2.3,0.9,3.9c0.3,1.6,0.7,3.2,1.2,4.9c0.5,1.7,1.2,3.4,2.1,4.9
		c0.9,1.5,2,2.8,3.4,3.8c1.4,1,3.2,1.5,5.3,1.5V80.5h-1.7C200.4,80.5,198.9,80,197.5,79z"/>
	<path class="st10" d="M65.3,77.9c-1-1.7-1.4-4.6-1.1-8.6c-1.4,1.4-2.9,2.6-4.3,3.5c-1.4,0.9-3.2,1.8-5.3,2.5
		c-2.1,0.7-4.6,1.1-7.4,1.2c-3.8,0-7.1-0.4-9.8-1.1c-2.7-0.7-4.8-1.6-6.4-2.6c-1.6-1-3.2-2.3-4.6-3.9c3.6,1.2,6.9,2,9.9,2.4
		c3,0.4,6.4,0.4,10.2,0.1c4.4-0.5,7.9-1.4,10.5-2.6c2.6-1.3,4.5-2.8,5.8-4.6c1.2-1.8,1.9-3.7,2.2-5.7c0.2-2,0.1-4-0.3-5.9
		c-0.4-2-1-3.7-1.7-5.3c-0.7-1.6-1.3-2.9-1.9-3.9c-0.6-1-0.9-1.6-1-1.7c1.6,2.6,1.8,5.1,0.4,7.3c-1.4,2.2-3.6,4.1-6.8,5.7
		c-3.2,1.6-6.7,2.8-10.5,3.6c-3.5,0.7-8.2,1.6-14.2,2.6l-8.1,18.2c0.6,1.8,1.2,3.3,1.9,4.5s1.6,2.5,2.7,3.8s2.5,2.3,4.1,3.2
		S33,92,35.3,92c2.4,0,5-0.5,7.7-1.6c2.7-1.1,5.6-2.9,8.5-5.4c2.9-2.5,5.9-6,8.9-10.3c-1,3.4-1.2,6.5-0.6,9.4c0.6,2.9,2,5.2,4.2,7
		c2.1,1.8,4.9,2.7,8.3,2.7V80.5C68.6,80.5,66.3,79.6,65.3,77.9z"/>
	<path class="st10" d="M45.7,156.4c-2.2-1.8-5.1-3.6-8.7-5.4c-3.7,6.8-6.6,12.5-8.7,17c-2.1,4.6-3.7,8.8-4.7,12.7
		c-1,5.4-0.5,9.8,1.6,13.3c2.1,3.5,5.2,5.2,9.1,5.1c5.3-0.5,9.4-2.3,12.4-5.5c2.9-3.2,4.9-6.8,6.1-10.9c1.1-4,1.7-7.6,1.6-10.6
		c-0.1-3.5-1-6.6-2.7-9.2C49.9,160.4,47.9,158.2,45.7,156.4z M42.9,180.8c-3,0.8-6.7,1.1-10.9,1c-2-0.2-3.6-1.1-4.6-2.7
		c-1-1.6-1.2-3.5-0.6-5.5l2.1-5.9l23.5,9.4C49.1,178.8,46,180,42.9,180.8z"/>
	<path class="st17" d="M10,51c0,0-4.1-10-8.6,0v-7.4H10L10,51z"/>
	<path class="st17" d="M59.4,1c0,0-10,4.1,0,8.6H52V1L59.4,1z"/>
	<path class="st17" d="M200.4,232.4c0,0,10-4.1,0-8.6h7.4v8.6L200.4,232.4z"/>
	<path class="st17" d="M244.4,177.7c0,0,4.1,10,8.6,0v7.4h-8.6L244.4,177.7z"/>
</g>
<g id="Layer_5" class="st0">
	<path class="st11" d="M-216.6,79c0,0,29-24,55-31c0,0-8-5-82,30L-216.6,79z"/>
	<g>
		<path class="st8" d="M-205.3,59.9C-241.3,45-246,48-246,48c11,3,22.4,9.1,32,15.1L-205.3,59.9z"/>
		<path class="st8" d="M-194.1,64.6l-8.8,5.9c6.7,4.8,11,8.4,11,8.4l26.6-1C-176.3,72.7-185.8,68.3-194.1,64.6z"/>
	</g>
</g>
</svg>
